<svg width="163" height="39" viewBox="0 0 163 39" fill="none" xmlns="http://www.w3.org/2000/svg">
<path d="M38.1203 6.23245V23.3355C37.9028 21.5237 37.3956 20.0743 36.7433 18.9872C34.0619 14.4216 28.8441 14.639 28.6266 14.639C28.4817 14.639 28.4092 14.639 28.2643 14.639H19.0605V0H31.8878C35.3664 0 38.1203 2.82635 38.1203 6.23245Z" fill="#1F1F25"/>
<path d="M38.1208 23.3352V31.8867C38.1208 34.858 36.0192 37.322 33.2653 37.9742C32.8305 38.0467 32.3232 38.1192 31.8883 38.1192H20.9453L26.0907 30.9446L30.9462 24.2049L32.2507 22.3931C32.4681 22.1032 32.613 21.8133 32.758 21.451C33.1928 20.4364 33.2653 19.2769 32.9754 18.2623C32.4681 16.378 30.8013 14.7837 28.6272 14.6388C28.8446 14.6388 36.9613 14.3489 38.1208 23.3352Z" fill="#1F1F25"/>
<path d="M38.1186 23.3352C36.7417 19.8566 34.4951 18.6246 32.9732 18.2623C32.4659 16.378 30.7991 14.7837 28.625 14.6388C28.8424 14.6388 36.9591 14.3489 38.1186 23.3352Z" fill="#1F1F25"/>
<g opacity="0.55">
<path opacity="0.67" d="M38.1208 27.394V31.8872C38.1208 34.8585 36.0192 37.3225 33.2653 37.9747C32.8305 38.0472 32.3232 38.1197 31.8883 38.1197H20.9453L22.902 35.3658L26.0907 30.9451H31.8159C34.0625 30.9451 36.0916 29.9305 37.541 28.1912L38.1208 27.394Z" fill="#1F1F25"/>
<path opacity="0.67" d="M38.1208 31.8145C38.1208 34.8582 36.0192 37.3222 33.2653 37.9744C32.8305 38.0469 32.3232 38.1194 31.8883 38.1194H20.9453L22.902 35.3655H31.7434C33.99 35.3655 36.0192 34.3509 37.4686 32.6116L38.1208 31.8145Z" fill="#1F1F25"/>
</g>
<path opacity="0.43" d="M38.1203 6.23245V23.3355C37.9028 21.5237 37.3956 20.0743 36.7433 18.9872V8.11668C36.7433 4.71058 33.9894 2.02917 30.6558 2.02917H19.0605V0H31.8878C35.3664 0 38.1203 2.82635 38.1203 6.23245Z" fill="#1F1F25"/>
<path d="M0 31.8872V14.7842C0.217411 16.5959 0.724704 18.0453 1.37694 19.1324C4.05834 23.698 9.27621 23.4806 9.49362 23.4806C9.63856 23.4806 9.71103 23.4806 9.85597 23.4806H18.9872V38.1196H6.23245C2.82635 38.1196 0 35.3658 0 31.8872Z" fill="#FF7029"/>
<path d="M0 14.784V6.23245C0 3.26117 2.10164 0.797174 4.85552 0.144941C5.29034 0.0724704 5.79763 0 6.23245 0H17.1755L12.0301 7.17457L7.17457 13.9143L5.8701 15.7261C5.65269 16.016 5.50775 16.3058 5.36281 16.6682C4.92799 17.6828 4.85552 18.8423 5.1454 19.8569C5.65269 21.7411 7.31951 23.3355 9.49362 23.4804C9.27621 23.4804 1.15953 23.7703 0 14.784Z" fill="#FF7029"/>
<path d="M0 14.7842C1.37694 18.2628 3.62352 19.4948 5.1454 19.8571C5.65269 21.7413 7.31951 23.3357 9.49362 23.4806C9.27621 23.4806 1.15953 23.7705 0 14.7842Z" fill="#FF7029"/>
<g opacity="0.55">
<path opacity="0.67" d="M0 10.7256V6.23245C0 3.26117 2.10164 0.797174 4.85552 0.144941C5.29034 0.0724704 5.79763 0 6.23245 0H17.1755L15.2188 2.75387L12.0301 7.17457H6.30492C4.05834 7.17457 2.02917 8.18915 0.579763 9.92844L0 10.7256Z" fill="#FF7029"/>
<path opacity="0.67" d="M0 6.30492C0 3.26117 2.10164 0.797174 4.85552 0.144941C5.29034 0.0724704 5.79763 0 6.23245 0H17.1755L15.2188 2.75387H6.30492C4.05834 2.75387 2.02917 3.76846 0.579763 5.50775L0 6.30492Z" fill="#FF7029"/>
</g>
<path opacity="0.43" d="M0 31.8872V14.7842C0.217411 16.5959 0.724704 18.0453 1.37694 19.1324V30.003C1.37694 33.4091 4.13081 36.0905 7.46445 36.0905H18.9872V38.1196H6.23245C2.82635 38.1196 0 35.3658 0 31.8872Z" fill="#FF7029"/>
<path d="M57.1572 32.1979C56.4822 32.1979 55.8073 32.1979 55.071 32.1368C54.3961 32.0757 53.6598 32.0146 52.9235 31.9535C52.1872 31.8924 51.5122 31.7702 50.8373 31.648C50.1624 31.5258 49.6102 31.4036 49.0579 31.2815V27.2492C49.7329 27.3103 50.5305 27.3714 51.3895 27.4324C52.2485 27.4935 53.1689 27.4935 54.1506 27.5546C55.071 27.5546 55.9914 27.6157 56.8504 27.6157C57.7094 27.6157 58.507 27.5546 59.1206 27.3713C59.7342 27.2492 60.2251 26.9437 60.5932 26.5771C60.9614 26.2105 61.0841 25.6607 61.0841 24.9886V24.0722C61.0841 23.3391 60.8386 22.7281 60.4091 22.3615C59.9796 21.9339 59.3047 21.7506 58.507 21.7506H56.2982C53.8438 21.7506 52.0031 21.2007 50.6532 20.1621C49.4874 19.0624 48.8125 17.2295 48.8125 14.6635V13.4416C48.8125 10.9367 49.5488 9.16494 50.96 8.00413C52.3713 6.84332 54.4574 6.29346 57.0958 6.29346C58.0162 6.29346 58.9979 6.35455 59.9183 6.41565C60.8386 6.53784 61.759 6.59893 62.618 6.72112C63.477 6.84332 64.2133 6.96551 64.8269 7.0877V11.12C63.7838 11.0589 62.5567 10.9978 61.2681 10.9367C59.9796 10.8756 58.7525 10.8145 57.648 10.8145C56.8504 10.8145 56.1754 10.8756 55.5619 11.0589C54.9483 11.1811 54.4574 11.4866 54.1506 11.9142C53.8438 12.3419 53.7211 12.8918 53.7211 13.686V14.358C53.7211 15.2745 53.9666 15.8854 54.4574 16.3131C54.9483 16.6797 55.6846 16.924 56.7277 16.924H59.2433C60.7773 16.924 62.0658 17.2295 63.0475 17.7794C64.0292 18.3292 64.8269 19.1235 65.3178 20.101C65.8086 21.0785 66.054 22.2393 66.054 23.4612V24.9275C66.054 26.9437 65.6859 28.4711 64.9496 29.5097C64.2133 30.5483 63.1702 31.2815 61.8204 31.648C60.4705 32.0146 58.9365 32.1979 57.1572 32.1979Z" fill="#1F1F25"/>
<path d="M79.7352 32.1979C77.9558 32.1979 76.4219 32.0147 75.1334 31.7092C73.8448 31.4037 72.7404 30.7317 71.82 29.8763C70.961 28.9599 70.2861 27.6769 69.8566 25.9662C69.4271 24.2555 69.1816 22.0561 69.1816 19.3068C69.1816 16.5575 69.4271 14.3581 69.8566 12.6474C70.2861 10.9368 70.961 9.59267 71.82 8.67624C72.679 7.75981 73.7835 7.14885 75.1334 6.78228C76.4219 6.41571 77.9558 6.23242 79.7352 6.23242C81.5146 6.23242 83.0485 6.41571 84.337 6.72118C85.6255 7.08776 86.73 7.69871 87.6503 8.61514C88.5094 9.53157 89.1843 10.8757 89.6138 12.5863C90.0433 14.297 90.2887 16.4964 90.2887 19.2457C90.2887 21.995 90.0433 24.1945 89.6138 25.9051C89.1843 27.6158 88.5094 28.8988 87.6503 29.8152C86.7913 30.7316 85.6869 31.3426 84.337 31.6481C82.9872 32.0147 81.4532 32.1979 79.7352 32.1979ZM79.7352 27.6158C80.7783 27.6158 81.6373 27.4936 82.3122 27.2492C82.9872 27.0048 83.5394 26.6383 83.9689 26.0273C84.3984 25.4164 84.6438 24.6221 84.8279 23.5224C85.012 22.4227 85.1347 21.0175 85.1347 19.2457C85.1347 17.4129 85.012 15.9466 84.8279 14.8469C84.6438 13.7471 84.337 12.8918 83.9689 12.342C83.5394 11.731 82.9872 11.3644 82.3122 11.1811C81.6373 10.9979 80.7783 10.8757 79.7352 10.8757C78.7535 10.8757 77.8945 10.9979 77.2195 11.1811C76.5446 11.3644 75.9924 11.7921 75.5629 12.342C75.1333 12.9529 74.8266 13.7471 74.6425 14.8469C74.4584 15.9466 74.3357 17.4129 74.3357 19.2457C74.3357 21.0175 74.3971 22.4227 74.5811 23.5224C74.7652 24.6221 75.072 25.4775 75.4401 26.0273C75.8083 26.5772 76.4219 27.0048 77.0968 27.2492C77.8331 27.4936 78.6921 27.6158 79.7352 27.6158Z" fill="#1F1F25"/>
<path d="M100.046 31.9533C98.7578 31.9533 97.592 31.77 96.7329 31.3424C95.8126 30.9147 95.1376 30.3037 94.7081 29.3873C94.2786 28.532 94.0332 27.3101 94.0332 25.9049V6.47656H99.1259V25.1106C99.1259 25.6605 99.2486 26.0882 99.4327 26.4547C99.6168 26.8213 99.9236 27.0657 100.23 27.1879C100.598 27.3101 100.967 27.3712 101.396 27.3712H109.495V32.0144H100.046V31.9533Z" fill="#1F1F25"/>
<path d="M110.906 31.9533L118.944 6.47656H125.387L133.425 31.9533H128.086L126.43 26.638H117.717L116.122 31.9533H110.906ZM118.944 22.0559H125.264L122.135 10.8754L118.944 22.0559Z" fill="#1F1F25"/>
<path d="M136.246 31.9533V6.47656H146.861C147.904 6.47656 148.824 6.59875 149.683 6.84313C150.542 7.08752 151.34 7.51518 152.015 8.12614C152.69 8.73709 153.181 9.53133 153.61 10.631C153.979 11.6697 154.163 13.0138 154.163 14.7244C154.163 15.8852 154.04 16.9239 153.794 17.7181C153.549 18.5734 153.242 19.2455 152.874 19.7342C152.506 20.2841 152.076 20.7118 151.586 21.0173C151.095 21.3227 150.604 21.6282 150.113 21.8115L154.899 32.0755H149.683L145.572 22.6057C145.266 22.6057 144.959 22.6057 144.591 22.6057C144.223 22.6057 143.854 22.6057 143.486 22.6057C143.118 22.6057 142.75 22.6057 142.382 22.6057C142.014 22.6057 141.707 22.6057 141.4 22.5446V32.0755H136.246V31.9533ZM141.339 18.4512H145.879C146.37 18.4512 146.738 18.3902 147.106 18.268C147.475 18.1458 147.781 17.9625 148.088 17.657C148.395 17.3515 148.579 16.985 148.702 16.4962C148.824 16.0074 148.947 15.3965 148.947 14.6633C148.947 13.9302 148.886 13.3803 148.702 12.8916C148.579 12.4028 148.334 12.0362 148.088 11.7919C147.781 11.5475 147.475 11.3642 147.106 11.242C146.738 11.1198 146.309 11.0587 145.879 11.0587H141.339V18.4512Z" fill="#1F1F25"/>
<path d="M157.904 31.9533V6.47656H162.997V31.9533H157.904Z" fill="#1F1F25"/>
</svg>
