<svg width="187" height="44" viewBox="0 0 187 44" fill="none" xmlns="http://www.w3.org/2000/svg">
<path d="M43.733 7.15005V26.7711C43.4836 24.6926 42.9016 23.0298 42.1534 21.7827C39.0772 16.5449 33.0911 16.7943 32.8417 16.7943C32.6754 16.7943 32.5923 16.7943 32.426 16.7943H21.8672V0H36.583C40.5737 0 43.733 3.24246 43.733 7.15005Z" fill="white"/>
<path d="M43.7335 26.771V36.5815C43.7335 39.9903 41.3224 42.817 38.1631 43.5653C37.6643 43.6484 37.0823 43.7316 36.5834 43.7316H24.0293L29.9322 35.5007L35.5026 27.7687L36.9991 25.6902C37.2486 25.3576 37.4148 25.0251 37.5811 24.6094C38.08 23.4454 38.1631 22.1152 37.8305 20.9512C37.2486 18.7896 35.3363 16.9605 32.8421 16.7942C33.0916 16.7942 42.4033 16.4616 43.7335 26.771Z" fill="white"/>
<path d="M43.7322 26.771C42.1525 22.7803 39.5752 21.3669 37.8292 20.9512C37.2472 18.7896 35.335 16.9605 32.8408 16.7942C33.0902 16.7942 42.4019 16.4616 43.7322 26.771Z" fill="white"/>
<g opacity="0.55">
<path opacity="0.67" d="M43.7335 31.4272V36.5819C43.7335 39.9907 41.3224 42.8174 38.1631 43.5657C37.6643 43.6488 37.0823 43.732 36.5834 43.732H24.0293L26.2741 40.5727L29.9322 35.5011H36.5003C39.0777 35.5011 41.4056 34.3372 43.0684 32.3418L43.7335 31.4272Z" fill="white"/>
<path opacity="0.67" d="M43.7335 36.4985C43.7335 39.9904 41.3224 42.8172 38.1631 43.5654C37.6643 43.6486 37.0823 43.7317 36.5834 43.7317H24.0293L26.2741 40.5724H36.4172C38.9945 40.5724 41.3224 39.4084 42.9852 37.4131L43.7335 36.4985Z" fill="white"/>
</g>
<path opacity="0.43" d="M43.733 7.15005V26.7711C43.4836 24.6926 42.9016 23.0298 42.1534 21.7827V9.31169C42.1534 5.4041 38.994 2.32792 35.1696 2.32792H21.8672V0H36.583C40.5737 0 43.733 3.24246 43.733 7.15005Z" fill="white"/>
<path d="M0 36.5815V16.9604C0.24942 19.039 0.831401 20.7018 1.57966 21.9489C4.65584 27.1867 10.6419 26.9373 10.8913 26.9373C11.0576 26.9373 11.1408 26.9373 11.307 26.9373H21.7827V43.7315H7.15005C3.24246 43.7315 0 40.5722 0 36.5815Z" fill="#4AAB3D"/>
<path d="M0 16.9606V7.15005C0 3.7413 2.41106 0.914541 5.57038 0.16628C6.06922 0.0831401 6.65121 0 7.15005 0H19.7042L13.8013 8.23087L8.23087 15.9629L6.73435 18.0414C6.48493 18.374 6.31865 18.7065 6.15236 19.1222C5.65352 20.2862 5.57038 21.6164 5.90294 22.7804C6.48492 24.942 8.39715 26.7711 10.8913 26.9374C10.6419 26.9374 1.33024 27.2699 0 16.9606Z" fill="#4AAB3D"/>
<path d="M0 16.9604C1.57966 20.9512 4.157 22.3646 5.90294 22.7803C6.48492 24.9419 8.39715 26.771 10.8913 26.9373C10.6419 26.9373 1.33024 27.2698 0 16.9604Z" fill="#4AAB3D"/>
<g opacity="0.55">
<path opacity="0.67" d="M0 12.3047V7.15005C0 3.7413 2.41106 0.914541 5.57038 0.16628C6.06922 0.0831401 6.65121 0 7.15005 0H19.7042L17.4594 3.15932L13.8013 8.23087H7.23319C4.65584 8.23087 2.32792 9.39483 0.665121 11.3902L0 12.3047Z" fill="#4AAB3D"/>
<path opacity="0.67" d="M0 7.23319C0 3.7413 2.41106 0.914541 5.57038 0.16628C6.06922 0.0831401 6.65121 0 7.15005 0H19.7042L17.4594 3.15932H7.23319C4.65584 3.15932 2.32792 4.32328 0.665121 6.31865L0 7.23319Z" fill="#4AAB3D"/>
</g>
<path opacity="0.43" d="M0 36.5815V16.9604C0.24942 19.039 0.831401 20.7018 1.57966 21.9489V34.4199C1.57966 38.3274 4.73898 41.4036 8.56343 41.4036H21.7827V43.7315H7.15005C3.24246 43.7315 0 40.5722 0 36.5815Z" fill="#4AAB3D"/>
<path d="M65.5752 36.938C64.8009 36.938 64.0266 36.938 63.1819 36.8679C62.4076 36.7978 61.5629 36.7277 60.7182 36.6576C59.8735 36.5876 59.0992 36.4474 58.3249 36.3072C57.5506 36.167 56.917 36.0268 56.2835 35.8867V31.2607C57.0578 31.3308 57.9729 31.4009 58.9584 31.471C59.9439 31.5411 60.9997 31.5411 62.126 31.6111C63.1819 31.6111 64.2378 31.6812 65.2232 31.6812C66.2087 31.6812 67.1238 31.6111 67.8277 31.4009C68.5316 31.2607 69.0948 30.9102 69.5171 30.4897C69.9395 30.0692 70.0802 29.4383 70.0802 28.6674V27.616C70.0802 26.7749 69.7987 26.074 69.3059 25.6535C68.8132 25.1628 68.0389 24.9526 67.1238 24.9526H64.5897C61.774 24.9526 59.6623 24.3218 58.1137 23.1302C56.7763 21.8686 56.002 19.7659 56.002 16.8221V15.4203C56.002 12.5466 56.8467 10.514 58.4657 9.18225C60.0847 7.85054 62.478 7.21973 65.5048 7.21973C66.5607 7.21973 67.6869 7.28982 68.7428 7.35991C69.7987 7.50009 70.8545 7.57018 71.84 7.71036C72.8255 7.85054 73.6702 7.99072 74.3741 8.1309V12.7569C73.1775 12.6868 71.7696 12.6167 70.2914 12.5466C68.8132 12.4765 67.4054 12.4064 66.1383 12.4064C65.2232 12.4064 64.4489 12.4765 63.745 12.6868C63.0411 12.8269 62.478 13.1774 62.126 13.668C61.774 14.1587 61.6333 14.7895 61.6333 15.7007V16.4716C61.6333 17.523 61.9148 18.2239 62.478 18.7145C63.0411 19.1351 63.8858 19.4154 65.0824 19.4154H67.9685C69.7283 19.4154 71.2065 19.7659 72.3328 20.3967C73.459 21.0275 74.3741 21.9387 74.9372 23.0601C75.5004 24.1816 75.7819 25.5133 75.7819 26.9151V28.5973C75.7819 30.9102 75.3596 32.6625 74.5149 33.854C73.6702 35.0456 72.4735 35.8867 70.9249 36.3072C69.3763 36.7277 67.6165 36.938 65.5752 36.938Z" fill="white"/>
<path d="M91.4794 36.9383C89.438 36.9383 87.6783 36.728 86.2 36.3776C84.7218 36.0271 83.4548 35.2561 82.3989 34.2748C81.4134 33.2235 80.6391 31.7516 80.1464 29.7891C79.6536 27.8265 79.3721 25.3033 79.3721 22.1492C79.3721 18.9952 79.6536 16.4719 80.1464 14.5094C80.6391 12.5469 81.4134 11.0049 82.3989 9.95351C83.3844 8.90216 84.6514 8.20126 86.2 7.78071C87.6783 7.36017 89.438 7.1499 91.4794 7.1499C93.5207 7.1499 95.2805 7.36017 96.7588 7.71062C98.237 8.13117 99.504 8.83207 100.56 9.88342C101.545 10.9348 102.32 12.4768 102.812 14.4393C103.305 16.4018 103.587 18.9251 103.587 22.0791C103.587 25.2332 103.305 27.7564 102.812 29.719C102.32 31.6815 101.545 33.1534 100.56 34.2048C99.5744 35.2561 98.3074 35.957 96.7588 36.3075C95.2101 36.728 93.4504 36.9383 91.4794 36.9383ZM91.4794 31.6815C92.676 31.6815 93.6615 31.5413 94.4358 31.261C95.2101 30.9806 95.8437 30.5601 96.3364 29.8592C96.8291 29.1583 97.1107 28.2471 97.3219 26.9855C97.5331 25.7238 97.6738 24.1117 97.6738 22.0791C97.6738 19.9764 97.5331 18.2943 97.3219 17.0326C97.1107 15.771 96.7587 14.7897 96.3364 14.1589C95.8437 13.458 95.2101 13.0375 94.4358 12.8272C93.6615 12.6169 92.676 12.4768 91.4794 12.4768C90.3531 12.4768 89.3677 12.6169 88.5933 12.8272C87.819 13.0375 87.1855 13.5281 86.6928 14.1589C86.2 14.8598 85.8481 15.771 85.6369 17.0326C85.4257 18.2943 85.2849 19.9764 85.2849 22.0791C85.2849 24.1117 85.3553 25.7238 85.5665 26.9855C85.7777 28.2471 86.1296 29.2283 86.552 29.8592C86.9743 30.49 87.6783 30.9806 88.4526 31.261C89.2973 31.5413 90.2827 31.6815 91.4794 31.6815Z" fill="white"/>
<path d="M114.779 36.6578C113.301 36.6578 111.964 36.4476 110.978 35.9569C109.922 35.4663 109.148 34.7654 108.655 33.714C108.162 32.7328 107.881 31.331 107.881 29.7189V7.43018H113.723V28.8077C113.723 29.4385 113.864 29.9292 114.075 30.3497C114.286 30.7702 114.638 31.0506 114.99 31.1908C115.413 31.331 115.835 31.4011 116.328 31.4011H125.62V36.7279H114.779V36.6578Z" fill="white"/>
<path d="M127.238 36.6578L136.46 7.43018H143.851L153.072 36.6578H146.948L145.047 30.56H135.052L133.222 36.6578H127.238ZM136.46 25.3032H143.71L140.12 12.4767L136.46 25.3032Z" fill="white"/>
<path d="M156.31 36.6578V7.43018H168.487C169.684 7.43018 170.74 7.57036 171.725 7.85072C172.711 8.13108 173.626 8.62171 174.4 9.32261C175.174 10.0235 175.738 10.9347 176.23 12.1963C176.653 13.3878 176.864 14.9298 176.864 16.8924C176.864 18.2241 176.723 19.4156 176.442 20.3268C176.16 21.3081 175.808 22.079 175.386 22.6398C174.963 23.2706 174.471 23.7612 173.907 24.1117C173.344 24.4621 172.781 24.8126 172.218 25.0228L177.709 36.798H171.725L167.009 25.934C166.657 25.934 166.305 25.934 165.883 25.934C165.46 25.934 165.038 25.934 164.616 25.934C164.193 25.934 163.771 25.934 163.349 25.934C162.926 25.934 162.574 25.934 162.222 25.8639V36.798H156.31V36.6578ZM162.152 21.1679H167.361C167.924 21.1679 168.347 21.0978 168.769 20.9576C169.191 20.8174 169.543 20.6071 169.895 20.2567C170.247 19.9062 170.458 19.4857 170.599 18.925C170.74 18.3643 170.881 17.6634 170.881 16.8223C170.881 15.9812 170.81 15.3504 170.599 14.7897C170.458 14.2289 170.177 13.8084 169.895 13.528C169.543 13.2477 169.191 13.0374 168.769 12.8972C168.347 12.757 167.854 12.6869 167.361 12.6869H162.152V21.1679Z" fill="white"/>
<path d="M181.157 36.6578V7.43018H187V36.6578H181.157Z" fill="white"/>
</svg>
