<svg width="47" height="47" viewBox="0 0 47 47" fill="none" xmlns="http://www.w3.org/2000/svg">
<g clip-path="url(#clip0_880_355)">
<path d="M45.4333 6.26667H43.7225C43.5611 5.81006 43.2625 5.41447 42.8677 5.13404C42.4728 4.8536 42.001 4.70201 41.5167 4.7H38.3833C37.7601 4.7 37.1623 4.94759 36.7216 5.3883C36.2809 5.82901 36.0333 6.42674 36.0333 7.05V14.8833C36.0353 15.3676 36.1869 15.8395 36.4674 16.2343C36.7478 16.6292 37.1434 16.9278 37.6 17.0892V33.6833C37.6 33.8911 37.5175 34.0903 37.3706 34.2372C37.2237 34.3841 37.0244 34.4667 36.8167 34.4667C36.6089 34.4667 36.4097 34.3841 36.2628 34.2372C36.1159 34.0903 36.0333 33.8911 36.0333 33.6833V27.4167C36.0333 26.5857 35.7032 25.7887 35.1156 25.2011C34.528 24.6135 33.731 24.2833 32.9 24.2833H29.7667V3.13333C29.7667 2.30232 29.4365 1.50535 28.8489 0.917732C28.2613 0.330118 27.4643 0 26.6333 0L6.26667 0C5.43566 0 4.63868 0.330118 4.05107 0.917732C3.46345 1.50535 3.13333 2.30232 3.13333 3.13333V40.7333H2.35C1.72674 40.7333 1.12901 40.9809 0.688299 41.4216C0.247589 41.8623 0 42.4601 0 43.0833L0 44.65C0 45.2733 0.247589 45.871 0.688299 46.3117C1.12901 46.7524 1.72674 47 2.35 47H30.55C31.1733 47 31.771 46.7524 32.2117 46.3117C32.6524 45.871 32.9 45.2733 32.9 44.65V43.0833C32.9 42.4601 32.6524 41.8623 32.2117 41.4216C31.771 40.9809 31.1733 40.7333 30.55 40.7333H29.7667V28.9833H31.3333V33.6833C31.3333 35.1376 31.911 36.5323 32.9394 37.5606C33.9677 38.589 35.3624 39.1667 36.8167 39.1667C38.2709 39.1667 39.6656 38.589 40.694 37.5606C41.7223 36.5323 42.3 35.1376 42.3 33.6833V17.0892C42.7566 16.9278 43.1522 16.6292 43.4326 16.2343C43.7131 15.8395 43.8647 15.3676 43.8667 14.8833V10.9667H45.4333C45.8488 10.9667 46.2473 10.8016 46.5411 10.5078C46.8349 10.214 47 9.81551 47 9.4V7.83333C47 7.41783 46.8349 7.01934 46.5411 6.72553C46.2473 6.43173 45.8488 6.26667 45.4333 6.26667ZM6.26667 1.56667H26.6333C27.0488 1.56667 27.4473 1.73173 27.7411 2.02553C28.0349 2.31934 28.2 2.71783 28.2 3.13333V21.15H4.7V3.13333C4.7 2.71783 4.86506 2.31934 5.15887 2.02553C5.45267 1.73173 5.85116 1.56667 6.26667 1.56667ZM31.3333 43.0833V44.65C31.3333 44.8578 31.2508 45.057 31.1039 45.2039C30.957 45.3508 30.7578 45.4333 30.55 45.4333H2.35C2.14225 45.4333 1.943 45.3508 1.7961 45.2039C1.6492 45.057 1.56667 44.8578 1.56667 44.65V43.0833C1.56667 42.8756 1.6492 42.6763 1.7961 42.5294C1.943 42.3825 2.14225 42.3 2.35 42.3H30.55C30.7578 42.3 30.957 42.3825 31.1039 42.5294C31.2508 42.6763 31.3333 42.8756 31.3333 43.0833ZM4.7 40.7333V22.7167H28.2V40.7333H4.7ZM36.8167 37.6C35.7783 37.5988 34.7828 37.1857 34.0485 36.4515C33.3143 35.7172 32.9012 34.7217 32.9 33.6833V28.9833C32.9 28.5678 32.7349 28.1693 32.4411 27.8755C32.1473 27.5817 31.7488 27.4167 31.3333 27.4167H29.7667V25.85H32.9C33.3155 25.85 33.714 26.0151 34.0078 26.3089C34.3016 26.6027 34.4667 27.0012 34.4667 27.4167V33.6833C34.4667 34.3066 34.7143 34.9043 35.155 35.345C35.5957 35.7857 36.1934 36.0333 36.8167 36.0333C37.4399 36.0333 38.0377 35.7857 38.4784 35.345C38.9191 34.9043 39.1667 34.3066 39.1667 33.6833V17.2333H40.7333V33.6833C40.7321 34.7217 40.319 35.7172 39.5848 36.4515C38.8505 37.1857 37.855 37.5988 36.8167 37.6ZM42.3 14.8833C42.3 15.0911 42.2175 15.2903 42.0706 15.4372C41.9237 15.5841 41.7244 15.6667 41.5167 15.6667H38.3833C38.1756 15.6667 37.9763 15.5841 37.8294 15.4372C37.6825 15.2903 37.6 15.0911 37.6 14.8833V7.05C37.6 6.84225 37.6825 6.643 37.8294 6.4961C37.9763 6.3492 38.1756 6.26667 38.3833 6.26667H41.5167C41.7244 6.26667 41.9237 6.3492 42.0706 6.4961C42.2175 6.643 42.3 6.84225 42.3 7.05V14.8833ZM45.4333 9.4H43.8667V7.83333H45.4333V9.4Z" fill="#4AAB3D"/>
<path d="M24.2836 28.9833C24.7484 28.9833 25.2027 28.8455 25.5892 28.5873C25.9756 28.3291 26.2768 27.962 26.4547 27.5326C26.6326 27.1032 26.6791 26.6307 26.5884 26.1749C26.4978 25.719 26.2739 25.3003 25.9453 24.9716C25.6166 24.643 25.1979 24.4192 24.7421 24.3285C24.2862 24.2378 23.8137 24.2843 23.3843 24.4622C22.9549 24.6401 22.5879 24.9413 22.3296 25.3277C22.0714 25.7142 21.9336 26.1685 21.9336 26.6333C21.9336 27.2566 22.1812 27.8543 22.6219 28.295C23.0626 28.7357 23.6603 28.9833 24.2836 28.9833ZM24.2836 25.85C24.4385 25.85 24.59 25.8959 24.7188 25.982C24.8476 26.0681 24.948 26.1904 25.0073 26.3336C25.0666 26.4767 25.0821 26.6342 25.0519 26.7861C25.0217 26.9381 24.947 27.0777 24.8375 27.1872C24.7279 27.2968 24.5884 27.3714 24.4364 27.4016C24.2845 27.4318 24.127 27.4163 23.9838 27.357C23.8407 27.2977 23.7183 27.1973 23.6323 27.0685C23.5462 26.9397 23.5003 26.7883 23.5003 26.6333C23.5003 26.4256 23.5828 26.2263 23.7297 26.0794C23.8766 25.9325 24.0758 25.85 24.2836 25.85Z" fill="#4AAB3D"/>
<path d="M24.2836 30.55C23.8188 30.55 23.3645 30.6879 22.978 30.9461C22.5916 31.2043 22.2903 31.5713 22.1125 32.0007C21.9346 32.4302 21.8881 32.9027 21.9787 33.3585C22.0694 33.8144 22.2932 34.2331 22.6219 34.5617C22.9505 34.8904 23.3693 35.1142 23.8251 35.2049C24.281 35.2956 24.7535 35.249 25.1829 35.0712C25.6123 34.8933 25.9793 34.5921 26.2375 34.2056C26.4958 33.8192 26.6336 33.3648 26.6336 32.9C26.6336 32.2768 26.386 31.6791 25.9453 31.2383C25.5046 30.7976 24.9069 30.55 24.2836 30.55ZM24.2836 33.6834C24.1287 33.6834 23.9772 33.6374 23.8484 33.5514C23.7196 33.4653 23.6192 33.343 23.5599 33.1998C23.5006 33.0567 23.4851 32.8992 23.5153 32.7472C23.5455 32.5953 23.6201 32.4557 23.7297 32.3461C23.8392 32.2366 23.9788 32.162 24.1308 32.1318C24.2827 32.1015 24.4402 32.1171 24.5834 32.1763C24.7265 32.2356 24.8488 32.336 24.9349 32.4649C25.021 32.5937 25.0669 32.7451 25.0669 32.9C25.0669 33.1078 24.9844 33.307 24.8375 33.454C24.6906 33.6009 24.4913 33.6834 24.2836 33.6834Z" fill="#4AAB3D"/>
<path d="M17.1209 8.23676C17.2235 8.05891 17.2521 7.8479 17.2006 7.64915C17.1492 7.4504 17.0218 7.27979 16.8458 7.17404C16.6698 7.0683 16.4594 7.03586 16.2597 7.08371C16.0601 7.13157 15.8872 7.25589 15.7783 7.42993L13.4283 11.3466C13.3569 11.4654 13.3183 11.6011 13.3165 11.7397C13.3147 11.8784 13.3497 12.015 13.4179 12.1357C13.4862 12.2564 13.5853 12.3568 13.705 12.4266C13.8248 12.4965 13.9609 12.5333 14.0996 12.5333H17.4154L15.7783 15.2633C15.7231 15.3515 15.686 15.4498 15.6692 15.5525C15.6524 15.6552 15.6563 15.7602 15.6806 15.8614C15.7048 15.9626 15.749 16.0579 15.8105 16.1419C15.872 16.2258 15.9496 16.2966 16.0388 16.3502C16.128 16.4038 16.227 16.4391 16.33 16.454C16.433 16.469 16.5379 16.4632 16.6386 16.4371C16.7394 16.4111 16.8339 16.3652 16.9167 16.3021C16.9995 16.2391 17.0689 16.1602 17.1209 16.0701L19.4709 12.1534C19.5423 12.0346 19.5809 11.8989 19.5827 11.7603C19.5845 11.6216 19.5495 11.485 19.4812 11.3643C19.413 11.2437 19.3139 11.1433 19.1942 11.0734C19.0744 11.0035 18.9382 10.9667 18.7996 10.9667H15.4837L17.1209 8.23676Z" fill="#4AAB3D"/>
<path d="M16.4495 19.5833C18.5264 19.581 20.5175 18.755 21.986 17.2864C23.4546 15.8179 24.2806 13.8268 24.2829 11.75C24.2863 10.5417 24.0073 9.34937 23.4682 8.26804C23.4229 8.17515 23.3597 8.09214 23.2821 8.02379C23.2046 7.95545 23.1143 7.90313 23.0164 7.86984C22.9186 7.83655 22.8151 7.82296 22.712 7.82984C22.6089 7.83672 22.5081 7.86395 22.4156 7.90994C22.323 7.95594 22.2405 8.01979 22.1727 8.09783C22.1049 8.17587 22.0533 8.26655 22.0207 8.36465C21.9882 8.46274 21.9753 8.56631 21.983 8.66938C21.9906 8.77245 22.0186 8.87299 22.0653 8.96521C22.4963 9.83003 22.7193 10.7837 22.7162 11.75C22.7162 12.9894 22.3487 14.201 21.6601 15.2315C20.9715 16.2621 19.9928 17.0653 18.8477 17.5396C17.7026 18.0139 16.4426 18.138 15.227 17.8962C14.0114 17.6544 12.8948 17.0576 12.0183 16.1812C11.1419 15.3048 10.5451 14.1881 10.3033 12.9725C10.0615 11.7569 10.1856 10.4969 10.6599 9.35181C11.1342 8.20673 11.9374 7.22801 12.968 6.53942C13.9985 5.85083 15.2101 5.48329 16.4495 5.48329C16.6573 5.48329 16.8565 5.40076 17.0034 5.25386C17.1503 5.10696 17.2329 4.90771 17.2329 4.69996C17.2329 4.49221 17.1503 4.29296 17.0034 4.14606C16.8565 3.99916 16.6573 3.91663 16.4495 3.91663C14.372 3.91663 12.3796 4.74192 10.9105 6.21096C9.44151 7.67999 8.61621 9.67243 8.61621 11.75C8.61621 13.8275 9.44151 15.8199 10.9105 17.289C12.3796 18.758 14.372 19.5833 16.4495 19.5833Z" fill="#4AAB3D"/>
</g>
<defs>
<clipPath id="clip0_880_355">
<rect width="47" height="47" fill="white"/>
</clipPath>
</defs>
</svg>
