<svg width="41" height="45" viewBox="0 0 41 45" fill="none" xmlns="http://www.w3.org/2000/svg">
<path d="M40.0608 24.1371C39.7631 23.8409 39.4097 23.606 39.0207 23.4457C38.6317 23.2854 38.2148 23.2029 37.7938 23.2029C37.3727 23.2029 36.9558 23.2854 36.5668 23.4457C36.1778 23.606 35.8244 23.8409 35.5267 24.1371L30.0387 29.5959C29.7979 29.1526 29.4415 28.782 29.0069 28.5231C28.5723 28.2642 28.0756 28.1266 27.569 28.1248H19.5411C18.85 27.2928 17.9918 26.6136 17.0214 26.1308C16.0511 25.648 14.99 25.3721 13.9062 25.321C12.8224 25.2698 11.7398 25.4444 10.7278 25.8337C9.71586 26.2229 8.7968 26.8182 8.02958 27.5813L4.9483 30.6462L4.03428 29.7371C3.96866 29.6718 3.89074 29.62 3.80499 29.5846C3.71923 29.5493 3.62731 29.5311 3.53448 29.5311C3.44166 29.5311 3.34974 29.5493 3.26398 29.5846C3.17822 29.62 3.10031 29.6718 3.03469 29.7371L0.207102 32.5496C0.141445 32.6149 0.0893609 32.6924 0.0538255 32.7777C0.0182902 32.863 0 32.9544 0 33.0468C0 33.1391 0.0182902 33.2305 0.0538255 33.3158C0.0893609 33.4011 0.141445 33.4786 0.207102 33.5439L11.5174 44.794C11.5831 44.8593 11.661 44.9111 11.7467 44.9465C11.8325 44.9818 11.9244 45 12.0172 45C12.1101 45 12.202 44.9818 12.2877 44.9465C12.3735 44.9111 12.4514 44.8593 12.517 44.794L15.3446 41.9815C15.4103 41.9162 15.4624 41.8387 15.4979 41.7534C15.5334 41.6681 15.5517 41.5767 15.5517 41.4843C15.5517 41.392 15.5334 41.3006 15.4979 41.2153C15.4624 41.13 15.4103 41.0525 15.3446 40.9872L14.4306 40.0781L15.2235 39.2894C15.6221 38.8954 16.1609 38.6735 16.7229 38.6718H27.0544C27.9831 38.6744 28.9031 38.4937 29.7611 38.1401C30.6192 37.7866 31.3982 37.2672 32.053 36.6122L40.0608 28.647C40.3586 28.3509 40.5948 27.9994 40.7559 27.6124C40.9171 27.2255 41 26.8108 41 26.392C41 25.9732 40.9171 25.5585 40.7559 25.1716C40.5948 24.7847 40.3586 24.4332 40.0608 24.1371ZM12.0173 43.3026L1.70651 33.0467L3.5345 31.2285L13.8452 41.4843L12.0173 43.3026ZM39.0612 27.6527L31.0534 35.6179C30.5295 36.1419 29.9062 36.5573 29.2198 36.8401C28.5334 37.123 27.7973 37.2675 27.0544 37.2655H16.7229C16.2586 37.2643 15.7986 37.3546 15.3697 37.5313C14.9407 37.7081 14.5513 37.9677 14.2239 38.2952L13.4311 39.0838L5.94789 31.6405L9.02921 28.5756C9.66536 27.9429 10.4289 27.4513 11.2697 27.1331C12.1105 26.8148 13.0095 26.6772 13.9076 26.7293C14.8057 26.7813 15.6825 27.0218 16.4805 27.435C17.2785 27.8482 17.9795 28.4247 18.5374 29.1266L18.6462 29.2636C18.7123 29.347 18.7965 29.4144 18.8926 29.4607C18.9887 29.507 19.0941 29.5311 19.2008 29.5311H27.569C27.9439 29.5311 28.3035 29.6792 28.5687 29.943C28.8338 30.2067 28.9828 30.5644 28.9828 30.9373C28.9828 31.3103 28.8338 31.668 28.5687 31.9317C28.3035 32.1954 27.9439 32.3436 27.569 32.3436H17.6724C17.4849 32.3436 17.3051 32.4177 17.1726 32.5495C17.04 32.6814 16.9655 32.8602 16.9655 33.0467C16.9655 33.2332 17.04 33.4121 17.1726 33.5439C17.3051 33.6758 17.4849 33.7499 17.6724 33.7499H27.569C28.2604 33.7477 28.927 33.4931 29.4422 33.0343C29.9574 32.5755 30.2853 31.9446 30.3636 31.2612L36.5264 25.1313C36.8678 24.807 37.3217 24.6261 37.7938 24.6261C38.2659 24.6261 38.7198 24.807 39.0612 25.1313C39.2277 25.2969 39.3597 25.4934 39.4498 25.7097C39.5399 25.926 39.5862 26.1579 39.5862 26.392C39.5862 26.6261 39.5399 26.858 39.4498 27.0743C39.3597 27.2906 39.2277 27.4872 39.0612 27.6527Z" fill="#1F1F25"/>
<path d="M11.8363 14.3278C11.8264 14.3415 11.8116 14.3493 11.8026 14.3639C11.8002 14.3678 11.8004 14.3722 11.7981 14.376C9.6482 17.0921 8.48033 20.4491 8.48278 23.906C8.48278 24.021 8.48348 24.1354 8.49141 24.25C8.50384 24.4275 8.58344 24.5937 8.71416 24.7151C8.84489 24.8366 9.01702 24.9042 9.19589 24.9044C9.21246 24.9044 9.22902 24.9037 9.24559 24.9027C9.3382 24.8963 9.42864 24.8718 9.51173 24.8307C9.59483 24.7895 9.66897 24.7325 9.7299 24.6628C9.79083 24.5931 9.83737 24.5122 9.86686 24.4247C9.89634 24.3371 9.9082 24.2446 9.90174 24.1525C9.89586 24.0701 9.89657 23.9881 9.89657 23.906C9.89719 20.9506 10.8401 18.0716 12.5898 15.6829C14.5889 16.9813 15.7591 18.2357 15.8072 19.1702C15.7332 20.0591 15.451 20.9184 14.9829 21.6792C14.7748 22.1066 14.5563 22.5564 14.3547 23.0381C14.3191 23.1233 14.3006 23.2148 14.3005 23.3071C14.3003 23.3994 14.3184 23.4909 14.3538 23.5763C14.4253 23.7487 14.5627 23.8858 14.7358 23.9575C14.8215 23.993 14.9134 24.0113 15.0062 24.0115C15.0991 24.0116 15.191 23.9936 15.2769 23.9584C15.4502 23.8873 15.5881 23.7507 15.6601 23.5785C15.851 23.1225 16.0585 22.6968 16.2555 22.292C16.8424 21.3244 17.1738 20.2249 17.2189 19.0957C17.1458 17.6774 15.8794 16.161 13.4792 14.583C14.5615 13.3643 15.847 12.3405 17.2792 11.5565C18.656 14.2251 20.3127 15.6336 22.1216 15.6336C22.2532 15.6336 22.3847 15.6262 22.5154 15.6116C23.7687 15.5322 24.9648 15.0616 25.9336 14.2668C26.5559 13.7882 26.8138 13.5904 28.2407 14.0862C29.5734 14.5477 30.9782 13.9691 32.251 12.4676C33.3527 13.2527 34.3353 14.1911 35.1687 15.254C34.3177 16.1579 33.6482 17.2151 33.1959 18.3688C32.5929 19.6783 32.1852 20.4848 31.4355 20.5548C30.9486 20.5849 30.4601 20.5829 29.9734 20.5486C28.1082 20.4573 25.7883 20.3492 24.1312 23.5895C23.7554 24.3196 23.5029 25.1062 23.3839 25.9179C23.3579 26.1026 23.4067 26.2899 23.5196 26.4388C23.6325 26.5877 23.8002 26.6858 23.9859 26.7117C24.0187 26.7163 24.0518 26.7186 24.0849 26.7185C24.2552 26.7183 24.4197 26.6569 24.5482 26.5456C24.6766 26.4344 24.7603 26.2807 24.7838 26.1129C24.88 25.4544 25.0856 24.8163 25.3924 24.225C26.6336 21.7976 28.0791 21.8687 29.9061 21.9532C30.4586 21.9916 31.013 21.9923 31.5656 21.9552C33.1689 21.8049 33.8361 20.3557 34.4812 18.9542C34.8466 18.0348 35.3583 17.1798 35.9968 16.4221C36.9422 17.9102 37.5958 19.5629 37.9229 21.293C37.9399 21.3838 37.9747 21.4704 38.0253 21.5478C38.0759 21.6253 38.1414 21.692 38.218 21.7443C38.2946 21.7965 38.3808 21.8333 38.4717 21.8524C38.5625 21.8715 38.6563 21.8726 38.7476 21.8556C38.8389 21.8386 38.9259 21.8039 39.0037 21.7535C39.0816 21.7031 39.1486 21.6379 39.2011 21.5616C39.2535 21.4854 39.2904 21.3996 39.3095 21.3092C39.3286 21.2188 39.3296 21.1256 39.3125 21.0348C38.6617 17.6139 36.8687 14.5117 34.2241 12.2309C31.5795 9.95014 28.2381 8.62433 24.7414 8.46829V7.69139C24.7415 7.2976 24.8528 6.91176 25.0628 6.57791C25.2727 6.24406 25.5728 5.97565 25.9288 5.80331C26.3221 6.25913 26.8098 6.62503 27.3584 6.87595C27.9071 7.12687 28.5038 7.25688 29.1077 7.25709C29.6804 7.2522 30.248 7.15074 30.7866 6.95702C31.6882 6.64309 32.5434 6.21007 33.3291 5.66957C33.6692 5.36591 34.0877 5.16247 34.5375 5.08206C34.9874 5.00165 35.4509 5.04745 35.876 5.21432C36.0192 5.25085 36.1703 5.24182 36.3081 5.18849C36.4458 5.13517 36.5633 5.04023 36.644 4.91703C36.7247 4.79384 36.7645 4.64858 36.7579 4.5017C36.7513 4.35481 36.6985 4.21368 36.6071 4.09817C36.4556 3.90656 32.8562 -0.578311 29.3914 0.0633673C26.0471 0.683418 25.6553 2.7011 25.4922 4.45086C24.9123 4.69526 24.4089 5.08994 24.0345 5.59376C23.6602 5.08985 23.1567 4.69509 22.5767 4.45065C22.4136 2.70094 22.0218 0.683375 18.6775 0.0633673C15.2124 -0.581743 11.6134 3.90691 11.4619 4.09814C11.3704 4.21366 11.3177 4.35478 11.3111 4.50167C11.3045 4.64855 11.3443 4.79381 11.425 4.91701C11.5057 5.0402 11.6232 5.13514 11.7609 5.18846C11.8987 5.24179 12.0498 5.25082 12.193 5.21429C12.6181 5.04732 13.0816 5.00147 13.5315 5.08189C13.9813 5.1623 14.3998 5.36579 14.7399 5.66954C15.5256 6.21004 16.3807 6.64307 17.2824 6.957C17.8209 7.15092 18.3886 7.25239 18.9613 7.25707C19.5652 7.25684 20.1619 7.12681 20.7106 6.87587C21.2592 6.62494 21.7469 6.25904 22.1402 5.80321C22.4962 5.97558 22.7963 6.24401 23.0062 6.57787C23.2162 6.91174 23.3275 7.29759 23.3276 7.69139V8.45495C21.1003 8.55429 18.9207 9.13037 16.9376 10.1439C14.9544 11.1574 13.2144 12.5845 11.8363 14.3278ZM29.6503 1.4456C31.1991 1.15618 33.0505 2.49412 34.3111 3.69198C33.6721 3.82407 33.0714 4.09812 32.5538 4.49365C31.8638 4.97106 31.1118 5.35323 30.3186 5.62972C29.8293 5.84202 29.2905 5.91524 28.762 5.84123C28.2334 5.76721 27.7359 5.54887 27.3246 5.21047L29.193 4.43048C29.2788 4.39492 29.3568 4.34285 29.4224 4.27726C29.4879 4.21168 29.5399 4.13387 29.5752 4.04828C29.6105 3.9627 29.6284 3.87103 29.628 3.77853C29.6276 3.68603 29.6089 3.59451 29.5729 3.50922C29.5369 3.42394 29.4843 3.34656 29.4182 3.28152C29.352 3.21648 29.2737 3.16506 29.1875 3.13021C29.1014 3.09536 29.0092 3.07776 28.9162 3.07843C28.8232 3.07909 28.7312 3.098 28.6456 3.13407L26.99 3.82532C27.1865 2.62257 27.6829 1.81055 29.6503 1.4456ZM17.7504 5.62972C16.9571 5.35323 16.2052 4.97106 15.5152 4.49365C14.9972 4.09752 14.3957 3.82332 13.7558 3.69166C15.0143 2.49345 16.8603 1.15757 18.4187 1.44561C20.3861 1.81048 20.8824 2.62266 21.0789 3.82521L19.4234 3.13407C19.3379 3.09832 19.246 3.07968 19.1532 3.07923C19.0604 3.07877 18.9684 3.0965 18.8825 3.13141C18.7965 3.16632 18.7184 3.21772 18.6524 3.28269C18.5865 3.34765 18.534 3.42489 18.4981 3.51002C18.4621 3.59514 18.4434 3.68647 18.4429 3.7788C18.4425 3.87112 18.4603 3.96263 18.4954 4.04811C18.5305 4.13358 18.5822 4.21134 18.6475 4.27694C18.7128 4.34255 18.7904 4.39472 18.876 4.43047L20.7447 5.21051C20.3332 5.5487 19.8356 5.76691 19.3071 5.8409C18.7786 5.9149 18.2397 5.8418 17.7504 5.62972ZM28.7066 12.7582C26.706 12.064 25.967 12.464 25.0689 13.1541C24.3044 13.7892 23.3537 14.161 22.359 14.2139C20.6842 14.4048 19.3362 12.473 18.5433 10.9478C20.5466 10.1078 22.7176 9.7386 24.8876 9.86894C27.0576 9.99928 29.1682 10.6256 31.0552 11.6993C30.4426 12.3853 29.5785 13.0612 28.7066 12.7582Z" fill="#1F1F25"/>
</svg>
