<svg width="40" height="40" viewBox="0 0 40 40" fill="none" xmlns="http://www.w3.org/2000/svg">
<path d="M36.2345 23.1468V23.6468H36.7345H38.3569C38.9745 23.6468 39.4589 24.1363 39.459 24.7141V30.4058C39.459 30.9835 38.9746 31.4731 38.357 31.4731H36.7346H36.2346V31.9731V35.9114C36.2346 37.0349 35.3198 37.9498 34.1963 37.9498H17.473H17.1928L17.0465 38.1889L16.3544 39.3204L16.3544 39.3205C16.2805 39.4412 16.1646 39.5 16.0462 39.5C16.0011 39.5 15.9523 39.4915 15.9014 39.4714C15.7265 39.4018 15.637 39.2351 15.6756 39.051C15.6756 39.051 15.6756 39.051 15.6756 39.0509L15.7801 38.5523L15.9065 37.9497H15.2908H2.53836C1.41488 37.9497 0.5 37.0349 0.5 35.9114V19.2085C0.5 18.085 1.41482 17.1701 2.53836 17.1701H19.256H19.5364L19.6826 16.9309L20.3745 15.7989C20.4728 15.6383 20.6522 15.5783 20.8274 15.6477C21.0024 15.717 21.092 15.8837 21.0535 16.0679L21.0535 16.068L20.949 16.5678L20.8231 17.1701H21.4384H29.1982C29.2457 17.1701 29.2841 17.2086 29.2841 17.2561C29.2841 17.3036 29.2457 17.342 29.1982 17.342H21.1935H20.7872L20.7041 17.7397L20.3203 19.5759L20.1944 20.1782H20.8097H32.6393C32.8007 20.1782 32.9473 20.244 33.0536 20.35H32.5546H20.5647H20.1584L20.0753 20.7477L19.1791 25.0352L19.0532 25.6375H19.6685H24.2205C24.3222 25.6375 24.4168 25.6929 24.4666 25.7816L24.4666 25.7817C24.5163 25.8703 24.5142 25.9799 24.4611 26.0667L24.4611 26.0667L19.6032 34.0088L19.1378 34.7696H20.0298H32.5546H33.0538C32.9474 34.8758 32.8008 34.9416 32.6393 34.9416H19.313H19.0328L18.8865 35.1807L17.7633 37.017L17.2979 37.7779H18.1898H34.1963C35.2258 37.7779 36.0627 36.941 36.0627 35.9114V19.2085C36.0627 18.1789 35.2259 17.342 34.1963 17.342H31.9326C31.8851 17.342 31.8466 17.3036 31.8466 17.2561C31.8466 17.2086 31.8851 17.1701 31.9326 17.1701H34.1962C35.3197 17.1701 36.2345 18.0849 36.2345 19.2085V23.1468ZM33.0546 20.351C33.1608 20.4574 33.2266 20.604 33.2266 20.7655V34.3543C33.2266 34.5158 33.1608 34.6625 33.0546 34.7688V34.2696V20.85V20.351ZM2.53836 37.7779H3.03836V37.7778H15.5363H15.9424L16.0257 37.3804L16.4106 35.5441L16.5369 34.9415H15.9212H11.6982C11.6508 34.9415 11.6123 34.903 11.6123 34.8556C11.6123 34.8081 11.6508 34.7696 11.6982 34.7696H16.1669H16.5729L16.6562 34.3722L17.5549 30.0849L17.6812 29.4823H17.0655H12.5138C12.4121 29.4823 12.3176 29.4269 12.2678 29.3382C12.2181 29.2495 12.2202 29.1398 12.2732 29.0532L12.2732 29.0531L17.1278 21.1108L17.5928 20.35H16.7012H4.18H3.68105C3.7874 20.244 3.93398 20.1782 4.09539 20.1782H17.4174H17.6978L17.844 19.939L18.9664 18.1028L19.4314 17.342H18.5398H2.53836C1.5088 17.342 0.671875 18.1788 0.671875 19.2085V35.9114C0.671875 36.9409 1.50868 37.7779 2.53836 37.7779ZM3.68 20.3511V20.85V34.2697V34.7688C3.57389 34.6624 3.50812 34.5158 3.50812 34.3543V20.7655C3.50812 20.6041 3.57389 20.4574 3.68 20.3511ZM4.09539 34.9416C3.93394 34.9416 3.78733 34.8758 3.68097 34.7697H4.18H8.96383C9.01128 34.7697 9.04977 34.8082 9.04977 34.8557C9.04977 34.9031 9.01128 34.9416 8.96383 34.9416H4.09539ZM16.2013 37.3803L17.1172 37.7438L23.9518 26.5702L24.4172 25.8093H23.5252H19.1889C19.1028 25.8093 19.0241 25.7719 18.97 25.7052C18.9157 25.6384 18.8952 25.5537 18.9128 25.4696L18.9128 25.4695L20.529 17.7377L19.6129 17.3747L12.7824 28.5497L12.3174 29.3105H13.209H17.5455C17.6316 29.3105 17.7103 29.3479 17.7645 29.4148C17.8187 29.4815 17.8392 29.5663 17.8216 29.6504L17.8216 29.6505L16.2013 37.3803ZM36.2345 30.8011V31.3011H36.7345H38.3569C38.8297 31.3011 39.287 30.9388 39.287 30.4057V24.7141C39.287 24.1812 38.8297 23.8187 38.3569 23.8187H36.7345H36.2345V24.3187V30.8011Z" fill="white" stroke="#1F1F25"/>
<path d="M12.2696 12.2818L12.2154 12.8058C12.121 12.694 12.074 12.548 12.0858 12.4035L12.0858 12.4035C12.2131 10.8308 12.9225 9.37219 14.0849 8.29508C15.2533 7.21236 16.7736 6.61646 18.3677 6.61646C19.9618 6.61646 21.482 7.21236 22.6504 8.29508L22.6504 8.2951C23.8128 9.3721 24.5222 10.8308 24.6496 12.4035C24.6613 12.5479 24.6144 12.6938 24.52 12.8056L24.4659 12.2818C24.3131 10.8036 23.6296 9.43663 22.5337 8.42111L22.5337 8.42108C21.3975 7.36844 19.9174 6.78833 18.3677 6.78833C16.818 6.78833 15.3378 7.36843 14.2017 8.4211L14.2017 8.42111C13.1058 9.43663 12.4222 10.8034 12.2696 12.2818ZM12.2402 12.8332H12.7669H18.3393C18.3867 12.8332 18.4252 12.8717 18.4252 12.9191C18.4252 12.9666 18.3867 13.005 18.3393 13.005H12.645C12.4932 13.005 12.3457 12.9423 12.2402 12.8332ZM23.9686 12.8332H24.4951C24.3896 12.9423 24.2422 13.005 24.0904 13.005H21.0736C21.0261 13.005 20.9877 12.9666 20.9877 12.9191C20.9877 12.8716 21.0261 12.8332 21.0736 12.8332H23.9686Z" fill="white" stroke="#1F1F25"/>
<path d="M18.4531 2.99242C18.4531 3.03987 18.4146 3.07836 18.3672 3.07836C18.3197 3.07836 18.2812 3.03987 18.2812 2.99242V0.585938C18.2812 0.538486 18.3197 0.5 18.3672 0.5C18.4146 0.5 18.4531 0.538486 18.4531 0.585938V2.99242Z" fill="white" stroke="#1F1F25"/>
<path d="M8.43969 13.0051H6.0332C5.98575 13.0051 5.94727 12.9666 5.94727 12.9192C5.94727 12.8717 5.98575 12.8333 6.0332 12.8333H8.43969C8.48714 12.8333 8.52563 12.8717 8.52563 12.9192C8.52563 12.9666 8.48714 13.0051 8.43969 13.0051Z" fill="white" stroke="#1F1F25"/>
<path d="M28.2949 13.0051C28.2474 13.0051 28.209 12.9667 28.209 12.9192C28.209 12.8717 28.2474 12.8333 28.2949 12.8333H30.7014C30.7489 12.8333 30.7873 12.8717 30.7873 12.9192C30.7873 12.9667 30.7489 13.0051 30.7014 13.0051H28.2949Z" fill="white" stroke="#1F1F25"/>
<path d="M13.3281 4.36529L13.3281 4.36529L12.1249 2.28115L12.1249 2.28113C12.1012 2.24004 12.1152 2.18748 12.1563 2.16376L12.1564 2.16371C12.1975 2.14001 12.2499 2.15403 12.2737 2.19515L12.2737 2.19519L13.4769 4.27933L13.4769 4.27935C13.5006 4.32044 13.4866 4.373 13.4455 4.39672L13.4454 4.39674C13.4313 4.40493 13.4171 4.40833 13.403 4.40833C13.3718 4.40833 13.3437 4.39227 13.3281 4.36529Z" fill="white" stroke="#1F1F25"/>
<path d="M29.0919 6.82692L29.092 6.82692C29.133 6.8032 29.1471 6.75066 29.1234 6.70958L29.0919 6.82692ZM29.0919 6.82692L27.0081 8.03006C27.0081 8.03008 27.0081 8.03009 27.008 8.03011C26.9935 8.03845 26.9792 8.0418 26.9655 8.0418C26.9343 8.0418 26.9062 8.02583 26.8904 7.99863C26.8668 7.95756 26.8809 7.90507 26.922 7.88137L26.922 7.88137L29.006 6.67809L29.006 6.67809M29.0919 6.82692L29.006 6.67809M29.006 6.67809C29.047 6.65441 29.0996 6.66845 29.1234 6.70954L29.006 6.67809Z" fill="white" stroke="#1F1F25"/>
<path d="M7.64462 6.82699L7.64462 6.82699C7.60353 6.80326 7.58944 6.7507 7.61317 6.70961L7.6132 6.70956C7.63694 6.66843 7.68942 6.65441 7.73046 6.67811L7.73054 6.67816L9.81461 7.88144L9.81461 7.88144C9.85569 7.90516 9.86978 7.95773 9.84606 7.99882L9.84604 7.99884C9.83047 8.02582 9.80233 8.04187 9.7711 8.04187C9.75708 8.04187 9.74288 8.03847 9.72872 8.03029L9.72868 8.03027L7.64462 6.82699Z" fill="white" stroke="#1F1F25"/>
<path d="M24.6078 2.28136L24.6078 2.28134C24.6315 2.24027 24.6175 2.18775 24.5765 2.16401L24.6078 2.28136ZM24.6078 2.28136L23.4047 4.36543L24.6078 2.28136ZM24.4591 2.19529L24.459 2.19541L23.2557 4.27955L23.2557 4.27956C23.2321 4.32051 23.246 4.37305 23.2871 4.39686C23.3016 4.40518 23.3158 4.40854 23.3297 4.40854C23.3608 4.40854 23.389 4.39252 23.4046 4.3655L24.4591 2.19529ZM24.4591 2.19529C24.4827 2.15443 24.535 2.14016 24.5764 2.16397L24.4591 2.19529Z" fill="white" stroke="#1F1F25"/>
</svg>
