<svg width="40" height="40" viewBox="0 0 40 40" fill="none" xmlns="http://www.w3.org/2000/svg">
<path fill-rule="evenodd" clip-rule="evenodd" d="M30.7142 4.28601C27.9547 4.28601 25.7142 6.52648 25.7142 9.28599C25.7142 12.0455 27.9547 14.286 30.7142 14.286C33.4737 14.286 35.7141 12.0455 35.7141 9.28599C35.7141 6.52648 33.4737 4.28601 30.7142 4.28601ZM30.7142 5.71458C32.6851 5.71458 34.2856 7.31504 34.2856 9.28599C34.2856 11.2569 32.6851 12.8574 30.7142 12.8574C28.7432 12.8574 27.1428 11.2569 27.1428 9.28599C27.1428 7.31504 28.7432 5.71458 30.7142 5.71458Z" fill="#FF7029"/>
<path fill-rule="evenodd" clip-rule="evenodd" d="M31.4282 17.8573V16.4287C31.4282 16.0344 31.1082 15.7144 30.7139 15.7144C30.3197 15.7144 29.9997 16.0344 29.9997 16.4287V17.8573C29.9997 18.2516 30.3197 18.5715 30.7139 18.5715C31.1082 18.5715 31.4282 18.2516 31.4282 17.8573Z" fill="#FF7029"/>
<path fill-rule="evenodd" clip-rule="evenodd" d="M37.6476 15.2094L36.219 13.7809C35.9402 13.5023 35.4876 13.5023 35.2088 13.7809C34.9301 14.0594 34.9301 14.5123 35.2088 14.7909L36.6373 16.2194C36.9161 16.498 37.3688 16.498 37.6476 16.2194C37.9263 15.9409 37.9263 15.488 37.6476 15.2094Z" fill="#FF7029"/>
<path fill-rule="evenodd" clip-rule="evenodd" d="M39.2857 8.57161H37.8572C37.4629 8.57161 37.1429 8.8916 37.1429 9.28589C37.1429 9.68017 37.4629 10.0002 37.8572 10.0002H39.2857C39.6799 10.0002 40 9.68017 40 9.28589C40 8.8916 39.6799 8.57161 39.2857 8.57161Z" fill="#FF7029"/>
<path fill-rule="evenodd" clip-rule="evenodd" d="M36.6373 2.35236L35.2088 3.78092C34.9301 4.05949 34.9301 4.51234 35.2088 4.79091C35.4876 5.06948 35.9402 5.06948 36.219 4.79091L37.6476 3.36235C37.9263 3.08378 37.9263 2.63093 37.6476 2.35236C37.3688 2.07379 36.9161 2.07379 36.6373 2.35236Z" fill="#FF7029"/>
<path fill-rule="evenodd" clip-rule="evenodd" d="M26.2191 3.78092L24.7905 2.35236C24.5117 2.07379 24.0591 2.07379 23.7803 2.35236C23.5016 2.63093 23.5016 3.08378 23.7803 3.36235L25.2089 4.79091C25.4877 5.06948 25.9403 5.06948 26.2191 4.79091C26.4978 4.51234 26.4978 4.05949 26.2191 3.78092Z" fill="#FF7029"/>
<path fill-rule="evenodd" clip-rule="evenodd" d="M29.9997 0.714386V2.14292C29.9997 2.53722 30.3197 2.85731 30.7139 2.85731C31.1082 2.85731 31.4282 2.53722 31.4282 2.14292V0.714386C31.4282 0.320088 31.1082 0 30.7139 0C30.3197 0 29.9997 0.320088 29.9997 0.714386Z" fill="#FF7029"/>
<path fill-rule="evenodd" clip-rule="evenodd" d="M25.2089 13.7809L23.7803 15.2094C23.5016 15.488 23.5016 15.9409 23.7803 16.2194C24.0591 16.498 24.5117 16.498 24.7905 16.2194L26.2191 14.7909C26.4978 14.5123 26.4978 14.0594 26.2191 13.7809C25.9403 13.5023 25.4877 13.5023 25.2089 13.7809Z" fill="#FF7029"/>
<path fill-rule="evenodd" clip-rule="evenodd" d="M23.5716 8.57161H22.143C21.7488 8.57161 21.4287 8.8916 21.4287 9.28589C21.4287 9.68017 21.7488 10.0002 22.143 10.0002H23.5716C23.9658 10.0002 24.2858 9.68017 24.2858 9.28589C24.2858 8.8916 23.9658 8.57161 23.5716 8.57161Z" fill="#FF7029"/>
<path fill-rule="evenodd" clip-rule="evenodd" d="M1.94218 21.4287L0.0214778 13.7451C-0.0320932 13.5316 0.0157633 13.3051 0.151476 13.1323C0.286475 12.9587 0.494331 12.8573 0.714329 12.8573H22.1427C22.537 12.8573 22.857 13.1773 22.857 13.5716C22.857 13.9659 22.537 14.2859 22.1427 14.2859H16.6292L18.4149 21.4287H24.7998L24.1284 18.7451C24.0327 18.3623 24.2656 17.9744 24.6484 17.8787C25.0306 17.783 25.4191 18.0158 25.5148 18.398L26.272 21.4287H31.9419L31.8069 20.888C31.7112 20.5051 31.9441 20.1173 32.3262 20.0215C32.7091 19.9258 33.0969 20.1587 33.1926 20.5408L33.4148 21.4287H34.2855C34.6798 21.4287 34.9998 21.7487 34.9998 22.143C34.9998 22.5372 34.6798 22.8572 34.2855 22.8572H33.7719L35.6926 30.5408C35.7462 30.7543 35.6983 30.9808 35.5626 31.1536C35.4276 31.3272 35.2198 31.4286 34.9998 31.4286H20.7142V38.5714H39.2854C39.6797 38.5714 39.9997 38.8914 39.9997 39.2857C39.9997 39.68 39.6797 40 39.2854 40H0.714329C0.320047 40 4.92143e-05 39.68 4.92143e-05 39.2857C4.92143e-05 38.8914 0.320047 38.5714 0.714329 38.5714H14.9999V31.4286H5.00001C4.67215 31.4286 4.38644 31.2058 4.30716 30.8879L2.29932 22.8572H1.42861C1.03433 22.8572 0.714329 22.5372 0.714329 22.143C0.714329 21.7487 1.03433 21.4287 1.42861 21.4287H1.94218ZM16.4285 31.4286V38.5714H19.2856V31.4286H16.4285ZM11.2278 30.0001L9.44211 22.8572H3.77216L5.55786 30.0001H11.2278ZM10.915 22.8572L12.7007 30.0001H19.0849L17.2992 22.8572H10.915ZM18.772 22.8572L20.5577 30.0001H26.942L25.1563 22.8572H18.772ZM32.2991 22.8572H26.6291L28.4148 30.0001H34.0848L32.2991 22.8572ZM1.62932 14.2859L3.41502 21.4287H9.08569L7.29999 14.2859H1.62932ZM8.77212 14.2859L10.5578 21.4287H16.9428L15.1571 14.2859H8.77212Z" fill="#FF7029"/>
</svg>
