<svg width="47" height="47" viewBox="0 0 47 47" fill="none" xmlns="http://www.w3.org/2000/svg">
<path d="M19.8995 23.1655C19.7703 22.8913 19.4945 22.7166 19.1914 22.7166H15.5113L18.3814 11.9528C18.4762 11.5964 18.3101 11.2228 17.9826 11.0543C17.6552 10.8851 17.2541 10.9681 17.02 11.2525L6.05336 24.5693C5.86068 24.8027 5.82075 25.127 5.95 25.4012C6.07925 25.6754 6.35501 25.85 6.65812 25.85H10.3383L7.46805 36.6146C7.37322 36.971 7.53928 37.3447 7.86672 37.5131C7.98027 37.5719 8.10328 37.6 8.22473 37.6C8.45266 37.6 8.67673 37.5005 8.82948 37.3141L19.7962 23.9974C19.9889 23.764 20.0288 23.4397 19.8995 23.1655ZM9.90966 33.5385L12.1147 25.2689C12.1774 25.0339 12.1272 24.7832 11.9792 24.5898C11.8312 24.3971 11.6017 24.2834 11.358 24.2834H8.3179L15.9397 15.0284L13.7347 23.298C13.672 23.533 13.7221 23.7837 13.8701 23.9771C14.0182 24.1698 14.2477 24.2834 14.4913 24.2834H17.5315L9.90966 33.5385Z" fill="#FF7029"/>
<path d="M17.6247 0H8.22471C7.79235 0 7.44141 0.350939 7.44141 0.783303V3.91661C7.44141 4.34897 7.79235 4.69991 8.22471 4.69991H17.6247C18.0571 4.69991 18.408 4.34897 18.408 3.91661V0.783303C18.408 0.350939 18.0571 0 17.6247 0ZM16.8414 3.1333H9.00801V1.5667H16.8413L16.8414 3.1333Z" fill="#FF7029"/>
<path d="M21.6748 3.1333H4.17671C2.52152 3.1333 1.17578 4.47987 1.17578 6.13432V43.9991C1.17578 45.6534 2.52152 47 4.17671 47H21.6748C23.3292 47 24.6758 45.6534 24.6758 43.9991V6.13432C24.6758 4.47987 23.3292 3.1333 21.6748 3.1333ZM23.1091 43.9991C23.1091 44.7903 22.466 45.4334 21.6748 45.4334H4.17671C3.38552 45.4334 2.74239 44.7903 2.74239 43.9991V6.13432C2.74239 5.34313 3.38552 4.7 4.17671 4.7H21.6748C22.466 4.7 23.1092 5.34313 23.1092 6.13432L23.1091 43.9991Z" fill="#FF7029"/>
<path d="M33.2914 0C31.9958 0 30.9414 1.05438 30.9414 2.35V8.6167C30.9414 9.04906 31.2923 9.4 31.7247 9.4H34.858C35.2904 9.4 35.6413 9.04906 35.6413 8.6167V2.35C35.6414 1.05438 34.587 0 33.2914 0ZM34.0747 7.8333H32.508V2.35C32.508 1.91837 32.8597 1.5667 33.2913 1.5667C33.7229 1.5667 34.0746 1.91837 34.0746 2.35V7.8333H34.0747Z" fill="#FF7029"/>
<path d="M41.1254 0C39.8298 0 38.7754 1.05438 38.7754 2.35V8.6167C38.7754 9.04906 39.1263 9.4 39.5587 9.4H42.692C43.1244 9.4 43.4753 9.04906 43.4753 8.6167V2.35C43.4754 1.05438 42.421 0 41.1254 0ZM41.9087 7.8333H40.342V2.35C40.342 1.91837 40.6937 1.5667 41.1253 1.5667C41.5569 1.5667 41.9086 1.91837 41.9086 2.35L41.9087 7.8333Z" fill="#FF7029"/>
<path d="M45.0418 7.83325H29.3751C28.9427 7.83325 28.5918 8.18419 28.5918 8.61655V11.7499C28.5918 12.1823 28.9427 12.5333 29.3751 12.5333H45.0418C45.4742 12.5333 45.8251 12.1823 45.8251 11.7499V8.61665C45.8251 8.18419 45.4742 7.83325 45.0418 7.83325ZM44.2584 10.9666H30.1584V9.39995H44.2584V10.9666Z" fill="#FF7029"/>
<path d="M43.4748 10.9667H30.9415C30.5091 10.9667 30.1582 11.3176 30.1582 11.75V18.8008C30.1582 20.5281 31.5635 21.9334 33.2908 21.9334H41.1256C42.8529 21.9334 44.2582 20.5281 44.2582 18.8008V11.75C44.2581 11.3176 43.9072 10.9667 43.4748 10.9667ZM42.6915 18.8008C42.6915 19.6648 41.9896 20.3667 41.1264 20.3667H33.2907C32.4267 20.3667 31.7248 19.6648 31.7248 18.8008V12.5334H42.6915V18.8008Z" fill="#FF7029"/>
<path d="M38.774 20.3667H35.6407C35.2084 20.3667 34.8574 20.7176 34.8574 21.15V22.7167C34.8574 24.0123 35.9118 25.0667 37.2074 25.0667C38.503 25.0667 39.5574 24.0123 39.5574 22.7167V21.15C39.5573 20.7176 39.2064 20.3667 38.774 20.3667ZM37.9907 22.7167C37.9907 23.1483 37.6391 23.5 37.2074 23.5C36.7758 23.5 36.4241 23.1483 36.4241 22.7167V21.9334H37.9908V22.7167H37.9907Z" fill="#FF7029"/>
<path d="M37.2073 23.5C36.775 23.5 36.424 23.8509 36.424 24.2833V41.5166C36.424 43.2447 35.0187 44.6499 33.2907 44.6499C31.5626 44.6499 30.1574 43.2446 30.1574 41.5166V24.2833C30.1574 20.828 27.3461 18.0166 23.8907 18.0166C23.4584 18.0166 23.1074 18.3675 23.1074 18.7999C23.1074 19.2323 23.4584 19.5832 23.8907 19.5832C26.4828 19.5832 28.5907 21.6911 28.5907 24.2832V41.5165C28.5907 44.1086 30.6987 46.2165 33.2907 46.2165C35.8828 46.2165 37.9907 44.1086 37.9907 41.5165V24.2833C37.9907 23.8509 37.6398 23.5 37.2073 23.5Z" fill="#FF7029"/>
</svg>
