<svg width="25" height="25" viewBox="0 0 25 25" fill="none" xmlns="http://www.w3.org/2000/svg">
<g clip-path="url(#clip0_92_849)">
<path d="M18.8865 14.7259L15.482 13.1019L14.0904 12.4381L14.1632 12.3878H16.0576C16.1985 12.3878 16.3335 12.3318 16.4331 12.2322C16.5327 12.1326 16.5887 11.9975 16.5887 11.8567V10.459H16.5839C16.5287 8.60817 15.9147 6.97038 14.9823 5.88956C14.3269 5.04696 13.3849 4.51562 12.329 4.51562C11.1846 4.51562 10.1739 5.14104 9.51756 6.11012C8.68682 7.18683 8.14774 8.73006 8.09623 10.459H8.09139V11.8567C8.09139 12.15 8.32912 12.3878 8.62249 12.3878H10.5222C10.5598 12.4131 10.5976 12.438 10.6356 12.4625L9.29313 13.0874L5.77812 14.7242C5.49951 14.8548 5.3099 15.1538 5.2787 15.4977C5.27148 15.5478 5.26776 15.5984 5.26758 15.6491V19.5198C5.26758 20.0388 5.62914 20.4592 6.07535 20.4592H18.6045C19.0509 20.4592 19.4123 20.0386 19.4123 19.5198V15.6491C19.4123 15.4544 19.361 15.2711 19.2715 15.118C19.1847 14.946 19.0522 14.806 18.8865 14.7259Z" fill="#015301"/>
<path d="M6.45002 13.0972V11.6265H6.45655C6.51532 9.6501 7.03142 7.84713 7.85346 6.43353C7.45344 6.18975 7.00385 6.04102 6.52064 6.04102C4.90848 6.04102 3.60347 7.55982 3.60347 9.4351C3.60347 10.7471 4.24461 11.8826 5.18129 12.4478L1.22732 14.2883C0.980639 14.4041 0.818359 14.6822 0.818359 14.9932V18.1138C0.818359 18.532 1.11075 18.8708 1.4699 18.8708H4.08306V15.5962C4.08306 14.749 4.55176 13.9826 5.27851 13.642L6.45002 13.0972ZM23.4524 14.3342L19.4987 12.4937C20.4353 11.9286 21.0765 10.7931 21.0765 9.48105C21.0765 7.60577 19.7715 6.08697 18.1593 6.08697C17.6761 6.08697 17.2265 6.2357 16.8265 6.47948C17.6485 7.89308 18.1644 9.69606 18.2234 11.6724H18.2299V13.1431L19.4014 13.6887C20.1282 14.029 20.5969 14.7954 20.5969 15.6428V18.9175H23.21C23.5692 18.9175 23.8616 18.5786 23.8616 18.1605V15.0392C23.8613 14.7282 23.6991 14.4501 23.4524 14.3342Z" fill="#015301"/>
</g>
<defs>
<clipPath id="clip0_92_849">
<rect width="24.1847" height="24.1847" fill="white" transform="translate(0.248047 0.394531)"/>
</clipPath>
</defs>
</svg>
