<svg width="26" height="25" viewBox="0 0 26 25" fill="none" xmlns="http://www.w3.org/2000/svg">
<path d="M15.0396 10.9756V8.45634M11.0088 10.9756V8.45634M13.0242 22.5641C18.5898 22.5641 23.1012 18.0526 23.1012 12.4871C23.1012 6.92162 18.5898 2.41016 13.0242 2.41016C7.45873 2.41016 2.94727 6.92162 2.94727 12.4871C2.94727 18.0526 7.45873 22.5641 13.0242 22.5641Z" stroke="#015301" stroke-width="2.0154" stroke-linecap="round" stroke-linejoin="round"/>
<path d="M13.0249 16.5169C14.094 16.5169 15.1192 16.0923 15.8751 15.3364C16.6311 14.5804 17.0557 13.5552 17.0557 12.4862V10.9746H8.99414V12.4862C8.99414 13.5552 9.41881 14.5804 10.1747 15.3364C10.9307 16.0923 11.9559 16.5169 13.0249 16.5169Z" fill="#015301" stroke="#015301" stroke-width="2.0154" stroke-linecap="round" stroke-linejoin="round"/>
<path d="M13.0234 22.5638V16.5176" stroke="#015301" stroke-width="2.0154" stroke-linecap="round" stroke-linejoin="round"/>
</svg>
