<svg width="26" height="25" viewBox="0 0 26 25" fill="none" xmlns="http://www.w3.org/2000/svg">
<path d="M21.3943 8.70812H16.1039V3.41771C16.1039 2.81638 15.865 2.23968 15.4398 1.81447C15.0146 1.38927 14.4379 1.15039 13.8366 1.15039H4.76732C4.16599 1.15039 3.58929 1.38927 3.16408 1.81447C2.73888 2.23968 2.5 2.81638 2.5 3.41771V23.0678C2.5 23.2683 2.57963 23.4605 2.72136 23.6022C2.8631 23.744 3.05533 23.8236 3.25577 23.8236H8.1683C8.26852 23.8236 8.36464 23.7838 8.43551 23.7129C8.50637 23.642 8.54619 23.5459 8.54619 23.4457V20.066C8.54619 19.6593 8.85889 19.3102 9.26559 19.2899C9.36777 19.285 9.4699 19.3008 9.56577 19.3366C9.66164 19.3723 9.74926 19.4271 9.82333 19.4976C9.89739 19.5682 9.95636 19.6531 9.99665 19.7471C10.0369 19.8412 10.0577 19.9424 10.0577 20.0447V23.4457C10.0577 23.5459 10.0975 23.642 10.1684 23.7129C10.2393 23.7838 10.3354 23.8236 10.4356 23.8236H22.9059C23.1063 23.8236 23.2986 23.744 23.4403 23.6022C23.582 23.4605 23.6617 23.2683 23.6617 23.0678V10.9754C23.6617 10.3741 23.4228 9.79741 22.9976 9.37221C22.5724 8.947 21.9957 8.70812 21.3943 8.70812ZM5.62134 20.7944C5.46482 20.8148 5.30581 20.7858 5.16664 20.7113C5.02747 20.6368 4.91512 20.5206 4.84536 20.3789C4.7756 20.2373 4.75193 20.0774 4.77768 19.9217C4.80343 19.7659 4.8773 19.6222 4.98892 19.5106C5.10054 19.3989 5.24432 19.3251 5.40006 19.2993C5.55581 19.2736 5.71571 19.2972 5.85732 19.367C5.99892 19.4367 6.11514 19.5491 6.18964 19.6883C6.26414 19.8274 6.2932 19.9864 6.27273 20.143C6.25112 20.3082 6.17555 20.4616 6.05775 20.5794C5.93995 20.6972 5.78653 20.7728 5.62134 20.7944ZM5.62134 17.0155C5.46482 17.036 5.30581 17.0069 5.16664 16.9324C5.02747 16.8579 4.91512 16.7417 4.84536 16.6001C4.7756 16.4585 4.75193 16.2986 4.77768 16.1428C4.80343 15.9871 4.8773 15.8433 4.98892 15.7317C5.10054 15.6201 5.24432 15.5462 5.40006 15.5204C5.55581 15.4947 5.71571 15.5184 5.85732 15.5881C5.99892 15.6579 6.11514 15.7702 6.18964 15.9094C6.26414 16.0486 6.2932 16.2076 6.27273 16.3641C6.25112 16.5293 6.17555 16.6827 6.05775 16.8005C5.93995 16.9183 5.78653 16.9939 5.62134 17.0155ZM5.62134 13.2366C5.46482 13.2571 5.30581 13.228 5.16664 13.1535C5.02747 13.079 4.91512 12.9628 4.84536 12.8212C4.7756 12.6796 4.75193 12.5197 4.77768 12.364C4.80343 12.2082 4.8773 12.0644 4.98892 11.9528C5.10054 11.8412 5.24432 11.7673 5.40006 11.7416C5.55581 11.7158 5.71571 11.7395 5.85732 11.8093C5.99892 11.879 6.11514 11.9914 6.18964 12.1305C6.26414 12.2697 6.2932 12.4287 6.27273 12.5852C6.25112 12.7504 6.17555 12.9038 6.05775 13.0216C5.93995 13.1394 5.78653 13.215 5.62134 13.2366ZM5.62134 9.45776C5.46482 9.47823 5.30581 9.44917 5.16664 9.37467C5.02747 9.30017 4.91512 9.18395 4.84536 9.04235C4.7756 8.90074 4.75193 8.74084 4.77768 8.58509C4.80343 8.42935 4.8773 8.28558 4.98892 8.17395C5.10054 8.06233 5.24432 7.98846 5.40006 7.96271C5.55581 7.93696 5.71571 7.96063 5.85732 8.03039C5.99892 8.10015 6.11514 8.2125 6.18964 8.35167C6.26414 8.49084 6.2932 8.64985 6.27273 8.80637C6.25112 8.97156 6.17555 9.12498 6.05775 9.24278C5.93995 9.36058 5.78653 9.43615 5.62134 9.45776ZM5.62134 5.67889C5.46482 5.69936 5.30581 5.67031 5.16664 5.5958C5.02747 5.5213 4.91512 5.40509 4.84536 5.26348C4.7756 5.12187 4.75193 4.96197 4.77768 4.80623C4.80343 4.65048 4.8773 4.50671 4.98892 4.39509C5.10054 4.28346 5.24432 4.20959 5.40006 4.18385C5.55581 4.1581 5.71571 4.18176 5.85732 4.25152C5.99892 4.32128 6.11514 4.43363 6.18964 4.5728C6.26414 4.71197 6.2932 4.87098 6.27273 5.02751C6.25112 5.19269 6.17555 5.34611 6.05775 5.46391C5.93995 5.58171 5.78653 5.65729 5.62134 5.67889ZM9.40021 17.0155C9.24368 17.036 9.08468 17.0069 8.94551 16.9324C8.80633 16.8579 8.69398 16.7417 8.62423 16.6001C8.55447 16.4585 8.5308 16.2986 8.55655 16.1428C8.5823 15.9871 8.65617 15.8433 8.76779 15.7317C8.87941 15.6201 9.02318 15.5462 9.17893 15.5204C9.33467 15.4947 9.49457 15.5184 9.63618 15.5881C9.77779 15.6579 9.894 15.7702 9.9685 15.9094C10.043 16.0486 10.0721 16.2076 10.0516 16.3641C10.03 16.5293 9.95441 16.6827 9.83661 16.8005C9.71881 16.9183 9.5654 16.9939 9.40021 17.0155ZM9.40021 13.2366C9.24368 13.2571 9.08468 13.228 8.94551 13.1535C8.80633 13.079 8.69398 12.9628 8.62423 12.8212C8.55447 12.6796 8.5308 12.5197 8.55655 12.364C8.5823 12.2082 8.65617 12.0644 8.76779 11.9528C8.87941 11.8412 9.02318 11.7673 9.17893 11.7416C9.33467 11.7158 9.49457 11.7395 9.63618 11.8093C9.77779 11.879 9.894 11.9914 9.9685 12.1305C10.043 12.2697 10.0721 12.4287 10.0516 12.5852C10.03 12.7504 9.95441 12.9038 9.83661 13.0216C9.71881 13.1394 9.5654 13.215 9.40021 13.2366ZM9.40021 9.45776C9.24368 9.47823 9.08468 9.44917 8.94551 9.37467C8.80633 9.30017 8.69398 9.18395 8.62423 9.04235C8.55447 8.90074 8.5308 8.74084 8.55655 8.58509C8.5823 8.42935 8.65617 8.28558 8.76779 8.17395C8.87941 8.06233 9.02318 7.98846 9.17893 7.96271C9.33467 7.93696 9.49457 7.96063 9.63618 8.03039C9.77779 8.10015 9.894 8.2125 9.9685 8.35167C10.043 8.49084 10.0721 8.64985 10.0516 8.80637C10.03 8.97156 9.95441 9.12498 9.83661 9.24278C9.71881 9.36058 9.5654 9.43615 9.40021 9.45776ZM9.40021 5.67889C9.24368 5.69936 9.08468 5.67031 8.94551 5.5958C8.80633 5.5213 8.69398 5.40509 8.62423 5.26348C8.55447 5.12187 8.5308 4.96197 8.55655 4.80623C8.5823 4.65048 8.65617 4.50671 8.76779 4.39509C8.87941 4.28346 9.02318 4.20959 9.17893 4.18385C9.33467 4.1581 9.49457 4.18176 9.63618 4.25152C9.77779 4.32128 9.894 4.43363 9.9685 4.5728C10.043 4.71197 10.0721 4.87098 10.0516 5.02751C10.03 5.19269 9.95441 5.34611 9.83661 5.46391C9.71881 5.58171 9.5654 5.65729 9.40021 5.67889ZM13.1791 20.7944C13.0225 20.8148 12.8635 20.7858 12.7244 20.7113C12.5852 20.6368 12.4729 20.5206 12.4031 20.3789C12.3333 20.2373 12.3097 20.0774 12.3354 19.9217C12.3612 19.7659 12.435 19.6222 12.5467 19.5106C12.6583 19.3989 12.8021 19.3251 12.9578 19.2993C13.1135 19.2736 13.2734 19.2972 13.415 19.367C13.5567 19.4367 13.6729 19.5491 13.7474 19.6883C13.8219 19.8274 13.8509 19.9864 13.8305 20.143C13.8089 20.3082 13.7333 20.4616 13.6155 20.5794C13.4977 20.6972 13.3443 20.7728 13.1791 20.7944ZM13.1791 17.0155C13.0225 17.036 12.8635 17.0069 12.7244 16.9324C12.5852 16.8579 12.4729 16.7417 12.4031 16.6001C12.3333 16.4585 12.3097 16.2986 12.3354 16.1428C12.3612 15.9871 12.435 15.8433 12.5467 15.7317C12.6583 15.6201 12.8021 15.5462 12.9578 15.5204C13.1135 15.4947 13.2734 15.5184 13.415 15.5881C13.5567 15.6579 13.6729 15.7702 13.7474 15.9094C13.8219 16.0486 13.8509 16.2076 13.8305 16.3641C13.8089 16.5293 13.7333 16.6827 13.6155 16.8005C13.4977 16.9183 13.3443 16.9939 13.1791 17.0155ZM13.1791 13.2366C13.0225 13.2571 12.8635 13.228 12.7244 13.1535C12.5852 13.079 12.4729 12.9628 12.4031 12.8212C12.3333 12.6796 12.3097 12.5197 12.3354 12.364C12.3612 12.2082 12.435 12.0644 12.5467 11.9528C12.6583 11.8412 12.8021 11.7673 12.9578 11.7416C13.1135 11.7158 13.2734 11.7395 13.415 11.8093C13.5567 11.879 13.6729 11.9914 13.7474 12.1305C13.8219 12.2697 13.8509 12.4287 13.8305 12.5852C13.8089 12.7504 13.7333 12.9038 13.6155 13.0216C13.4977 13.1394 13.3443 13.215 13.1791 13.2366ZM13.1791 9.45776C13.0225 9.47823 12.8635 9.44917 12.7244 9.37467C12.5852 9.30017 12.4729 9.18395 12.4031 9.04235C12.3333 8.90074 12.3097 8.74084 12.3354 8.58509C12.3612 8.42935 12.435 8.28558 12.5467 8.17395C12.6583 8.06233 12.8021 7.98846 12.9578 7.96271C13.1135 7.93696 13.2734 7.96063 13.415 8.03039C13.5567 8.10015 13.6729 8.2125 13.7474 8.35167C13.8219 8.49084 13.8509 8.64985 13.8305 8.80637C13.8089 8.97156 13.7333 9.12498 13.6155 9.24278C13.4977 9.36058 13.3443 9.43615 13.1791 9.45776ZM13.1791 5.67889C13.0225 5.69936 12.8635 5.67031 12.7244 5.5958C12.5852 5.5213 12.4729 5.40509 12.4031 5.26348C12.3333 5.12187 12.3097 4.96197 12.3354 4.80623C12.3612 4.65048 12.435 4.50671 12.5467 4.39509C12.6583 4.28346 12.8021 4.20959 12.9578 4.18385C13.1135 4.1581 13.2734 4.18176 13.415 4.25152C13.5567 4.32128 13.6729 4.43363 13.7474 4.5728C13.8219 4.71197 13.8509 4.87098 13.8305 5.02751C13.8089 5.19269 13.7333 5.34611 13.6155 5.46391C13.4977 5.58171 13.3443 5.65729 13.1791 5.67889ZM21.9612 22.312H16.1039V10.2197H21.3943C21.5948 10.2197 21.787 10.2993 21.9287 10.441C22.0705 10.5828 22.1501 10.775 22.1501 10.9754V22.1231C22.1501 22.1732 22.1302 22.2213 22.0948 22.2567C22.0593 22.2921 22.0113 22.312 21.9612 22.312Z" fill="#015301"/>
<path d="M19.8824 19.2902C19.7329 19.2902 19.5868 19.3345 19.4625 19.4175C19.3382 19.5006 19.2413 19.6186 19.1841 19.7567C19.1269 19.8948 19.112 20.0468 19.1411 20.1934C19.1703 20.34 19.2423 20.4746 19.348 20.5803C19.4537 20.686 19.5883 20.758 19.7349 20.7872C19.8815 20.8163 20.0335 20.8014 20.1716 20.7442C20.3097 20.687 20.4277 20.5901 20.5108 20.4658C20.5938 20.3415 20.6382 20.1954 20.6382 20.0459C20.6382 19.8455 20.5585 19.6532 20.4168 19.5115C20.2751 19.3698 20.0828 19.2902 19.8824 19.2902ZM19.8824 15.5113C19.7329 15.5113 19.5868 15.5556 19.4625 15.6387C19.3382 15.7217 19.2413 15.8397 19.1841 15.9778C19.1269 16.1159 19.112 16.2679 19.1411 16.4145C19.1703 16.5611 19.2423 16.6958 19.348 16.8015C19.4537 16.9072 19.5883 16.9792 19.7349 17.0083C19.8815 17.0375 20.0335 17.0225 20.1716 16.9653C20.3097 16.9081 20.4277 16.8112 20.5108 16.6869C20.5938 16.5627 20.6382 16.4165 20.6382 16.2671C20.6382 16.0666 20.5585 15.8744 20.4168 15.7326C20.2751 15.5909 20.0828 15.5113 19.8824 15.5113ZM19.8824 11.7324C19.7329 11.7324 19.5868 11.7767 19.4625 11.8598C19.3382 11.9428 19.2413 12.0609 19.1841 12.199C19.1269 12.3371 19.112 12.489 19.1411 12.6356C19.1703 12.7822 19.2423 12.9169 19.348 13.0226C19.4537 13.1283 19.5883 13.2003 19.7349 13.2294C19.8815 13.2586 20.0335 13.2436 20.1716 13.1864C20.3097 13.1292 20.4277 13.0324 20.5108 12.9081C20.5938 12.7838 20.6382 12.6377 20.6382 12.4882C20.6382 12.2878 20.5585 12.0955 20.4168 11.9538C20.2751 11.812 20.0828 11.7324 19.8824 11.7324ZM16.8593 19.2902C16.7098 19.2902 16.5637 19.3345 16.4394 19.4175C16.3151 19.5006 16.2182 19.6186 16.161 19.7567C16.1038 19.8948 16.0889 20.0468 16.118 20.1934C16.1472 20.34 16.2192 20.4746 16.3249 20.5803C16.4306 20.686 16.5652 20.758 16.7118 20.7872C16.8585 20.8163 17.0104 20.8014 17.1485 20.7442C17.2866 20.687 17.4046 20.5901 17.4877 20.4658C17.5707 20.3415 17.6151 20.1954 17.6151 20.0459C17.6151 19.8455 17.5354 19.6532 17.3937 19.5115C17.252 19.3698 17.0597 19.2902 16.8593 19.2902ZM16.8593 15.5113C16.7098 15.5113 16.5637 15.5556 16.4394 15.6387C16.3151 15.7217 16.2182 15.8397 16.161 15.9778C16.1038 16.1159 16.0889 16.2679 16.118 16.4145C16.1472 16.5611 16.2192 16.6958 16.3249 16.8015C16.4306 16.9072 16.5652 16.9792 16.7118 17.0083C16.8585 17.0375 17.0104 17.0225 17.1485 16.9653C17.2866 16.9081 17.4046 16.8112 17.4877 16.6869C17.5707 16.5627 17.6151 16.4165 17.6151 16.2671C17.6151 16.0666 17.5354 15.8744 17.3937 15.7326C17.252 15.5909 17.0597 15.5113 16.8593 15.5113ZM16.8593 11.7324C16.7098 11.7324 16.5637 11.7767 16.4394 11.8598C16.3151 11.9428 16.2182 12.0609 16.161 12.199C16.1038 12.3371 16.0889 12.489 16.118 12.6356C16.1472 12.7822 16.2192 12.9169 16.3249 13.0226C16.4306 13.1283 16.5652 13.2003 16.7118 13.2294C16.8585 13.2586 17.0104 13.2436 17.1485 13.1864C17.2866 13.1292 17.4046 13.0324 17.4877 12.9081C17.5707 12.7838 17.6151 12.6377 17.6151 12.4882C17.6151 12.2878 17.5354 12.0955 17.3937 11.9538C17.252 11.812 17.0597 11.7324 16.8593 11.7324Z" fill="#015301"/>
</svg>
