<svg width="25" height="25" viewBox="0 0 25 25" fill="none" xmlns="http://www.w3.org/2000/svg">
<path d="M12.3954 2.66016C10.4522 2.66016 8.55258 3.23639 6.93686 4.31598C5.32114 5.39557 4.06184 6.93003 3.3182 8.72532C2.57457 10.5206 2.38 12.4961 2.7591 14.402C3.1382 16.3079 4.07395 18.0585 5.44801 19.4326C6.82207 20.8066 8.57272 21.7424 10.4786 22.1215C12.3845 22.5006 14.36 22.306 16.1553 21.5624C17.9505 20.8187 19.485 19.5594 20.5646 17.9437C21.6442 16.328 22.2204 14.4284 22.2204 12.4852C22.2204 9.87944 21.1853 7.3804 19.3427 5.53785C17.5002 3.69529 15.0011 2.66016 12.3954 2.66016ZM11.6396 6.43902C11.6396 6.23858 11.7192 6.04635 11.861 5.90461C12.0027 5.76288 12.1949 5.68325 12.3954 5.68325C12.5958 5.68325 12.788 5.76288 12.9298 5.90461C13.0715 6.04635 13.1511 6.23858 13.1511 6.43902V12.4852C13.1511 12.6857 13.0715 12.8779 12.9298 13.0196C12.788 13.1614 12.5958 13.241 12.3954 13.241C12.1949 13.241 12.0027 13.1614 11.861 13.0196C11.7192 12.8779 11.6396 12.6857 11.6396 12.4852V6.43902ZM12.3954 20.0429C10.7739 20.0431 9.19531 19.5218 7.89285 18.5559C6.59039 17.5901 5.63309 16.2309 5.16236 14.6793C4.69163 13.1276 4.73242 11.4657 5.27871 9.93897C5.825 8.41227 6.84783 7.10174 8.1961 6.20095C8.27846 6.14271 8.37164 6.10155 8.47016 6.07988C8.56867 6.05821 8.67052 6.05649 8.76972 6.0748C8.86891 6.09312 8.96343 6.1311 9.04771 6.18652C9.13199 6.24194 9.20433 6.31367 9.26046 6.39748C9.31658 6.48129 9.35536 6.57549 9.37452 6.67452C9.39367 6.77356 9.3928 6.87542 9.37197 6.97411C9.35113 7.07281 9.31075 7.16633 9.25321 7.24918C9.19566 7.33202 9.12211 7.40251 9.0369 7.45648C7.95825 8.17703 7.13992 9.22538 6.70281 10.4467C6.26569 11.668 6.23295 12.9975 6.60942 14.2389C6.9859 15.4802 7.75163 16.5676 8.79351 17.3403C9.83539 18.1131 11.0982 18.5303 12.3954 18.5303C13.6926 18.5303 14.9553 18.1131 15.9972 17.3403C17.0391 16.5676 17.8048 15.4802 18.1813 14.2389C18.5578 12.9975 18.5251 11.668 18.0879 10.4467C17.6508 9.22538 16.8325 8.17703 15.7538 7.45648C15.6686 7.40251 15.5951 7.33202 15.5375 7.24918C15.48 7.16633 15.4396 7.07281 15.4188 6.97411C15.3979 6.87542 15.3971 6.77356 15.4162 6.67452C15.4354 6.57549 15.4742 6.48129 15.5303 6.39748C15.5864 6.31367 15.6587 6.24194 15.743 6.18652C15.8273 6.1311 15.9218 6.09312 16.021 6.0748C16.1202 6.05649 16.2221 6.05821 16.3206 6.07988C16.4191 6.10155 16.5123 6.14271 16.5946 6.20095C17.9429 7.10174 18.9657 8.41227 19.512 9.93897C20.0583 11.4657 20.0991 13.1276 19.6284 14.6793C19.1576 16.2309 18.2003 17.5901 16.8979 18.5559C15.5954 19.5218 14.0169 20.0431 12.3954 20.0429Z" fill="#015301"/>
</svg>
