<svg width="25" height="25" viewBox="0 0 25 25" fill="none" xmlns="http://www.w3.org/2000/svg">
<g clip-path="url(#clip0_92_830)">
<path fill-rule="evenodd" clip-rule="evenodd" d="M13.1791 0.54398C13.0426 0.44677 12.8791 0.394531 12.7115 0.394531C12.5439 0.394531 12.3805 0.44677 12.2439 0.54398L0.957727 8.60556C0.853095 8.68006 0.767779 8.77848 0.708884 8.89262C0.649988 9.00677 0.61922 9.13333 0.619141 9.26177V23.7726C0.619141 23.9864 0.704075 24.1915 0.855259 24.3427C1.00644 24.4938 1.21149 24.5788 1.4253 24.5788H3.84377V13.2926H11.9054V24.5788H23.9977C24.2115 24.5788 24.4166 24.4938 24.5678 24.3427C24.719 24.1915 24.8039 23.9864 24.8039 23.7726V9.26177C24.8038 9.13333 24.773 9.00677 24.7141 8.89262C24.6552 8.77848 24.5699 8.68006 24.4653 8.60556L23.1916 7.6946V3.61867H21.5793V6.54341L13.1791 0.54398ZM18.3546 19.7418V13.2926H19.9669V19.7418H18.3546Z" fill="#015301"/>
<path d="M10.292 24.5801V19.7432H8.67971V18.1309H10.292V14.9062H5.45508V24.5801H10.292Z" fill="#015301"/>
</g>
<defs>
<clipPath id="clip0_92_830">
<rect width="24.1847" height="24.1847" fill="white" transform="translate(0.619141 0.394531)"/>
</clipPath>
</defs>
</svg>
