<svg width="422" height="706" xmlns="http://www.w3.org/2000/svg" xmlns:xlink="http://www.w3.org/1999/xlink" xml:space="preserve" overflow="hidden"><g transform="translate(-412 -1544)"><g><rect x="417.5" y="1551.5" width="414" height="695" stroke="#016E52" stroke-width="4.58333" stroke-linecap="butt" stroke-linejoin="miter" stroke-miterlimit="8" stroke-opacity="1" fill="#016E52" fill-opacity="1"/><g><g><g><path d="M532.063 1782.12 703.938 1782.12 703.938 2015.87 532.063 2015.87 532.063 1782.12ZM511.438 2036.5 724.563 2036.5 724.563 1761.5 511.438 1761.5 511.438 2036.5Z" fill="#FFFFFF" fill-rule="nonzero" fill-opacity="1"/><path d="M624.875 1813.06 683.313 1813.06 683.313 1826.81 624.875 1826.81Z" fill="#FFFFFF" fill-rule="nonzero" fill-opacity="1"/><path d="M624.875 1868.06 683.313 1868.06 683.313 1881.81 624.875 1881.81Z" fill="#FFFFFF" fill-rule="nonzero" fill-opacity="1"/><path d="M624.875 1978.06 683.313 1978.06 683.313 1991.81 624.875 1991.81Z" fill="#FFFFFF" fill-rule="nonzero" fill-opacity="1"/><path d="M624.875 1923.06 683.313 1923.06 683.313 1936.81 624.875 1936.81Z" fill="#FFFFFF" fill-rule="nonzero" fill-opacity="1"/><path d="M603.563 1805.5 593.938 1795.87 571.25 1818.56 562.313 1809.62 552.688 1819.25 571.25 1837.81Z" fill="#FFFFFF" fill-rule="nonzero" fill-opacity="1"/><path d="M603.563 1860.5 593.938 1850.87 571.25 1873.56 562.313 1864.62 552.688 1874.25 571.25 1892.81Z" fill="#FFFFFF" fill-rule="nonzero" fill-opacity="1"/><path d="M603.563 1915.5 593.938 1905.87 571.25 1928.56 562.313 1919.62 552.688 1929.25 571.25 1947.81Z" fill="#FFFFFF" fill-rule="nonzero" fill-opacity="1"/><path d="M603.563 1969.81 593.938 1960.19 571.25 1982.87 562.313 1973.94 552.688 1983.56 571.25 2002.12Z" fill="#FFFFFF" fill-rule="nonzero" fill-opacity="1"/></g></g></g></g></g></svg>