<svg width="422" height="532" xmlns="http://www.w3.org/2000/svg" xmlns:xlink="http://www.w3.org/1999/xlink" xml:space="preserve" overflow="hidden"><g transform="translate(-412 -737)"><g><rect x="417.5" y="744.5" width="414" height="520" stroke="#016E52" stroke-width="4.58333" stroke-linecap="butt" stroke-linejoin="miter" stroke-miterlimit="8" stroke-opacity="1" fill="#016E52" fill-opacity="1"/><g><g><g><path d="M5.45833 24.4056 12.2812 24.4056 12.2812 27.1347 5.45833 27.1347Z" fill="#FFFFFF" fill-rule="nonzero" fill-opacity="1" transform="matrix(1 0 0 1.00763 618 839)"/><path d="M14.7853 19.4139 10.0488 14.5656 11.9783 12.591 16.7148 17.438 14.7853 19.4139Z" fill="#FFFFFF" fill-rule="nonzero" fill-opacity="1" transform="matrix(1 0 0 1.00763 618 839)"/><path d="M31.3854 25.9271C31.3854 30.4489 27.7197 34.1146 23.1979 34.1146 18.6761 34.1146 15.0104 30.4489 15.0104 25.9271 15.0104 21.4052 18.6761 17.7396 23.1979 17.7396 27.7197 17.7396 31.3854 21.4052 31.3854 25.9271Z" fill="#FFFFFF" fill-rule="nonzero" fill-opacity="1" transform="matrix(1 0 0 1.00763 618 839)"/><path d="M21.8333 8.03057 24.5625 8.03057 24.5625 14.8535 21.8333 14.8535Z" fill="#FFFFFF" fill-rule="nonzero" fill-opacity="1" transform="matrix(1 0 0 1.00763 618 839)"/><path d="M34.1146 24.4056 40.9375 24.4056 40.9375 27.1347 34.1146 27.1347Z" fill="#FFFFFF" fill-rule="nonzero" fill-opacity="1" transform="matrix(1 0 0 1.00763 618 839)"/><path d="M31.6106 19.4139 36.347 14.5656 34.4175 12.591 29.681 17.438 31.6106 19.4139Z" fill="#FFFFFF" fill-rule="nonzero" fill-opacity="1" transform="matrix(1 0 0 1.00763 618 839)"/><path d="M14.7853 32.2833 10.0488 37.1317 11.9783 39.1062 16.7148 34.2592 14.7853 32.2833Z" fill="#FFFFFF" fill-rule="nonzero" fill-opacity="1" transform="matrix(1 0 0 1.00763 618 839)"/><path d="M21.8333 36.8437 24.5625 36.8437 24.5625 43.6667 21.8333 43.6667Z" fill="#FFFFFF" fill-rule="nonzero" fill-opacity="1" transform="matrix(1 0 0 1.00763 618 839)"/><path d="M31.6106 32.2833 36.347 37.1317 34.4175 39.1062 29.681 34.2592 31.6106 32.2833Z" fill="#FFFFFF" fill-rule="nonzero" fill-opacity="1" transform="matrix(1 0 0 1.00763 618 839)"/><path d="M62.431 67.4036 85.7627 67.4036 84.0801 54.2845 64.1136 54.2845 62.431 67.4036Z" fill="#FFFFFF" fill-rule="nonzero" fill-opacity="1" transform="matrix(1 0 0 1.00763 618 839)"/><path d="M88.8821 48.8261 108.236 48.8261 103.034 37.2654 87.4002 37.2654 88.8821 48.8261Z" fill="#FFFFFF" fill-rule="nonzero" fill-opacity="1" transform="matrix(1 0 0 1.00763 618 839)"/><path d="M91.2647 67.4036 116.597 67.4036 110.694 54.2845 89.5821 54.2845 91.2647 67.4036Z" fill="#FFFFFF" fill-rule="nonzero" fill-opacity="1" transform="matrix(1 0 0 1.00763 618 839)"/><path d="M91.9647 72.8619 93.8287 87.4097 125.54 87.4097 125.54 87.2801 125.542 87.2801 119.053 72.8619 91.9647 72.8619Z" fill="#FFFFFF" fill-rule="nonzero" fill-opacity="1" transform="matrix(1 0 0 1.00763 618 839)"/><path d="M64.8122 48.8261 83.3801 48.8261 81.8982 37.2654 66.2942 37.2654 64.8122 48.8261Z" fill="#FFFFFF" fill-rule="nonzero" fill-opacity="1" transform="matrix(1 0 0 1.00763 618 839)"/><path d="M125.54 101.571 125.54 92.8681 22.6521 92.8681 22.6521 101.571 70.0031 101.571 70.0031 114.625 55.5194 114.625 55.5194 122.812 92.6729 122.812 92.6729 114.625 78.1906 114.625 78.1906 101.571 125.54 101.571Z" fill="#FFFFFF" fill-rule="nonzero" fill-opacity="1" transform="matrix(1 0 0 1.00763 618 839)"/><path d="M56.929 67.4036 58.6116 54.2845 37.5015 54.2845 31.5983 67.4036 56.929 67.4036Z" fill="#FFFFFF" fill-rule="nonzero" fill-opacity="1" transform="matrix(1 0 0 1.00763 618 839)"/><path d="M88.3267 87.4097 86.4627 72.8619 61.7324 72.8619 59.867 87.4097 88.3267 87.4097Z" fill="#FFFFFF" fill-rule="nonzero" fill-opacity="1" transform="matrix(1 0 0 1.00763 618 839)"/><path d="M54.365 87.4097 56.229 72.8619 29.142 72.8619 22.6521 87.2801 22.6521 87.4097 54.365 87.4097Z" fill="#FFFFFF" fill-rule="nonzero" fill-opacity="1" transform="matrix(1 0 0 1.00763 618 839)"/><path d="M59.3102 48.8261 60.7922 37.2654 45.1609 37.2654 39.9577 48.8261 59.3102 48.8261Z" fill="#FFFFFF" fill-rule="nonzero" fill-opacity="1" transform="matrix(1 0 0 1.00763 618 839)"/></g></g></g><g><g><g><path d="M84.1318 138.479C73.0282 142.223 62.6229 147.784 53.3405 154.936 47.0371 159.859 43.2975 167.368 43.1666 175.364L43.1666 222.767 45.5678 224.369C51.174 228.106 60.8623 231.041 72.8437 233.192L72.8437 215.833 124.104 215.833 124.104 237.543C126.149 237.574 128.197 237.59 130.247 237.592 131.799 237.592 133.347 237.573 134.896 237.557L134.896 215.833 186.156 215.833 186.156 233.386C198.594 231.184 208.43 228.122 213.675 224.197L215.833 222.578 215.833 175.251C215.69 167.331 211.992 159.894 205.762 155.001 196.485 147.844 186.087 142.275 174.989 138.519L158.168 131.774C157.151 131.364 156.484 130.38 156.479 129.284L156.479 122.68C166.708 114.506 172.664 102.124 172.667 89.0312L172.667 70.1458 175.364 70.1458C178.345 70.1458 180.76 67.7301 180.76 64.75 180.76 61.7698 178.345 59.3541 175.364 59.3541L172.667 59.3541C171.727 44.4554 163.157 31.0997 150.004 24.0384L145.687 41.1162C145.383 42.3497 144.259 43.2036 142.989 43.1666L142.342 43.1666C140.883 42.8615 139.948 41.4319 140.254 39.9737 140.254 39.9731 140.254 39.9728 140.254 39.9723 140.254 39.921 140.278 39.8725 140.292 39.8212L145.418 19.6138C144.518 16.0293 141.305 13.5091 137.61 13.4896L121.422 13.4896C117.721 13.5017 114.499 16.0235 113.598 19.6138L118.724 39.8212C119.115 41.2565 118.27 42.7374 116.836 43.1316L116.674 43.1666 116.027 43.1666C114.757 43.2036 113.633 42.3497 113.329 41.1162L109.147 24.0384C95.9942 31.0997 87.4238 44.4554 86.4844 59.3541L83.6516 59.3541C80.6714 59.3541 78.2557 61.7698 78.2557 64.75 78.2557 67.7301 80.6714 70.1458 83.6516 70.1458L86.3495 70.1458 86.3495 89.0312C86.3532 102.114 92.3019 114.487 102.518 122.661L102.518 129.284C102.523 130.374 101.867 131.359 100.859 131.774ZM97.1249 89.0312 97.1249 70.1458 161.875 70.1458 161.875 89.0312C161.875 106.911 147.38 121.406 129.5 121.406 111.62 121.406 97.1249 106.911 97.1249 89.0312ZM124.104 205.042 73.7016 205.042 82.1677 151.021 104.93 141.765C105.092 141.697 105.235 141.605 105.394 141.533L124.118 186.156ZM129.5 142.989C122.248 143.061 115.027 142.023 108.089 139.911 111.383 137.369 113.312 133.445 113.312 129.284L113.312 129.014C123.692 133.255 135.321 133.255 145.701 129.014L145.701 129.284C145.697 133.464 147.643 137.406 150.965 139.944 144.005 142.04 136.768 143.067 129.5 142.989ZM134.896 205.042 134.896 186.156 153.614 141.546C153.773 141.619 153.919 141.713 154.083 141.781L177.016 150.954 185.347 205.042Z" fill="#FFFFFF" fill-rule="nonzero" fill-opacity="1" transform="matrix(1 0 0 1 461 904)"/></g></g></g></g></g></svg>