<svg width="421" height="610" xmlns="http://www.w3.org/2000/svg" xmlns:xlink="http://www.w3.org/1999/xlink" xml:space="preserve" overflow="hidden"><g transform="translate(-426 -737)"><g><rect x="429.5" y="741.5" width="414" height="599" stroke="#016E52" stroke-width="4.58333" stroke-linecap="butt" stroke-linejoin="miter" stroke-miterlimit="8" stroke-opacity="1" fill="#016E52" fill-opacity="1"/><g><g><g><path d="M214.523 51.1271C212.415 38.7406 201.346 29.2531 188.432 29.2531 187.115 29.2531 185.533 29.5167 184.216 29.5167 177.891 21.6104 168.14 16.6031 157.071 16.6031 140.995 16.6031 127.554 27.4083 123.338 42.1667 108.579 45.0656 97.5104 57.9792 97.5104 73.5281 97.5104 91.1854 111.742 105.417 129.135 105.417L129.135 105.417C129.135 105.417 207.144 105.417 208.198 105.417 223.483 105.417 234.816 93.0302 234.816 77.7448 234.816 65.0948 226.119 54.5531 214.523 51.1271ZM206.617 89.6042 128.608 89.6042C122.547 89.0771 117.276 85.651 114.641 80.3802 112.269 74.8458 112.796 68.5208 116.485 63.5135 119.648 59.2969 124.392 56.925 129.399 56.925 130.19 56.925 131.244 56.925 132.034 57.1885L136.778 57.9792 136.778 52.7083C136.778 43.2208 143.103 35.051 152.327 32.9427 153.908 32.6792 155.49 32.4156 157.071 32.4156 157.071 32.4156 157.071 32.4156 157.071 32.4156 157.071 32.4156 157.071 32.4156 157.071 32.4156 164.714 32.4156 171.566 36.6323 174.992 43.4844L176.573 46.6469 179.999 45.3292C181.58 44.8021 183.425 44.5385 185.27 44.5385 188.696 44.5385 191.858 45.5927 194.757 47.4375 198.974 50.6 201.609 55.6073 201.609 60.8781L201.609 65.0948 206.88 65.0948C213.732 65.0948 219.267 70.6292 219.267 77.4813 219.003 84.0698 213.469 89.6042 206.617 89.6042Z" fill="#FFFFFF" fill-rule="nonzero" fill-opacity="1" transform="matrix(1.00395 0 0 1 509 928)"/><path d="M136.515 115.958 26.8813 115.958C22.1375 115.958 18.4479 119.648 18.4479 124.392L18.4479 199.765C18.4479 204.508 22.1375 208.198 26.8813 208.198 26.8813 208.198 26.8813 208.198 26.8813 208.198L68.5208 208.198 68.5208 218.74 50.0729 218.74 50.0729 234.552 113.323 234.552 113.323 218.74 94.875 218.74 94.875 208.198 136.515 208.198C141.258 208.198 144.948 204.508 144.948 199.765L144.948 124.392C144.948 119.648 141.258 115.958 136.515 115.958ZM129.135 192.385 34.2604 192.385 34.2604 131.771 129.135 131.771 129.135 192.385Z" fill="#FFFFFF" fill-rule="nonzero" fill-opacity="1" transform="matrix(1.00395 0 0 1 509 928)"/><path d="M183.952 115.958C186.588 119.384 187.905 123.865 187.905 128.081 187.905 135.988 183.425 143.103 176.573 146.793L176.573 135.988 157.334 155.49 176.573 174.465 176.573 163.659C196.339 158.389 207.934 138.096 202.4 118.33 202.136 117.54 201.873 116.749 201.609 115.958L183.952 115.958Z" fill="#FFFFFF" fill-rule="nonzero" fill-opacity="1" transform="matrix(1.00395 0 0 1 509 928)"/><path d="M60.351 105.417C58.2427 102.781 56.3979 97.5104 56.3979 93.2938 56.3979 85.3875 60.8781 78.2719 67.7302 74.5823L67.7302 85.3875 86.9688 65.8854 67.7302 46.9104 67.7302 57.7156C47.9646 62.9865 36.3688 83.2792 41.9031 103.045 42.1667 103.835 42.4302 104.626 42.6938 105.417L60.351 105.417Z" fill="#FFFFFF" fill-rule="nonzero" fill-opacity="1" transform="matrix(1.00395 0 0 1 509 928)"/></g></g></g></g></g></svg>