<svg width="95" height="88" xmlns="http://www.w3.org/2000/svg" xmlns:xlink="http://www.w3.org/1999/xlink" xml:space="preserve" overflow="hidden"><g transform="translate(-361 -302)"><g><g><g><g><path d="M69.6 57.6375C65.6125 54.375 60.5375 52.2 55.4625 50.75 51.8375 49.6625 47.85 48.9375 43.5 48.9375 39.5125 48.9375 35.525 49.6625 31.5375 50.75 26.4625 52.2 21.3875 54.7375 17.4 57.6375 15.5875 59.0875 14.5 61.2625 14.5 63.4375L14.5 77.9375 72.5 77.9375 72.5 63.4375C72.5 61.2625 71.4125 59.0875 69.6 57.6375Z" fill="#016E52" fill-rule="nonzero" fill-opacity="1" transform="matrix(1.08046 0 0 1 362 303)"/><path d="M29.3625 18.4875C29.9062 18.4875 30.3594 18.3063 30.6312 17.9437L30.6312 17.9437C33.9844 14.6813 38.5156 12.6875 43.5 12.6875 53.4688 12.6875 61.625 20.8438 61.625 30.8125L61.625 34.9812 51.2031 38.425C50.75 38.2438 50.2969 38.0625 49.8438 38.0625 48.3031 38.0625 47.125 39.2406 47.125 40.7812 47.125 42.3219 48.3031 43.5 49.8438 43.5 50.9313 43.5 51.9281 42.8656 52.3812 41.8688L66.7906 37.0656C67.5156 36.7937 68.0594 36.1594 68.0594 35.3438L68.0594 27.1875C68.0594 26.1906 67.2437 25.375 66.2469 25.375L64.6156 25.375C62.1687 16.0406 53.65 9.0625 43.5 9.0625 37.6094 9.0625 32.2625 11.4188 28.275 15.225 27.8219 15.5875 27.55 16.0406 27.55 16.675 27.55 17.6719 28.3656 18.4875 29.3625 18.4875Z" fill="#016E52" fill-rule="nonzero" fill-opacity="1" transform="matrix(1.08046 0 0 1 362 303)"/><path d="M57.9094 32.3531C58 31.8094 58 31.3562 58 30.8125 58 22.8375 51.475 16.3125 43.5 16.3125 35.525 16.3125 29 22.8375 29 30.8125 29 38.7875 35.525 45.3125 43.5 45.3125 43.7719 45.3125 44.1344 45.3125 44.4062 45.2219L44.4062 40.7812C44.4062 39.9656 44.5875 39.15 44.95 38.3344 45.5844 37.0656 46.6719 36.0687 48.1219 35.6156L57.9094 32.3531Z" fill="#016E52" fill-rule="nonzero" fill-opacity="1" transform="matrix(1.08046 0 0 1 362 303)"/></g></g></g></g></g></svg>