<svg width="527" height="528" xmlns="http://www.w3.org/2000/svg" xmlns:xlink="http://www.w3.org/1999/xlink" xml:space="preserve" overflow="hidden"><g transform="translate(-2493 -572)"><g><path d="M2495 835C2495 690.854 2611.85 574 2756 574 2900.15 574 3017 690.854 3017 835 3017 979.146 2900.15 1096 2756 1096 2611.85 1096 2495 979.146 2495 835Z" fill="#016E52" fill-rule="evenodd" fill-opacity="1"/><g><g><g><path d="M190.652 172.763C186.012 201.584 174.63 228.901 157.433 252.49L158.322 253.379C152.869 254.002 147.654 254.688 143.101 255.349 144.445 249.638 143.611 243.63 140.763 238.5 137.958 234.292 133.198 231.807 128.142 231.913L128.002 231.913C118.457 231.987 108.209 237.072 99.589 242.889 99.3544 242.354 99.0955 241.822 98.8085 241.3 96.0158 236.279 90.9993 232.886 85.2985 232.165 80.928 231.653 76.5019 232.394 72.5375 234.304 74.334 226.711 74.1762 218.786 72.079 211.27 69.1841 202.342 62.1383 195.373 53.179 192.577 46.5111 190.404 39.4282 189.818 32.494 190.865 26.0269 191.803 19.6987 193.527 13.65 196 8.20249 197.988 5.39812 204.016 7.38629 209.463 9.37447 214.911 15.4023 217.715 20.8498 215.727 21.0182 215.666 21.185 215.6 21.35 215.53 25.7998 213.698 30.4547 212.411 35.2135 211.697 38.9207 211.085 42.7192 211.339 46.312 212.439 49.0546 213.085 51.2564 215.124 52.1115 217.808 56.1575 230.16 42.679 258.23 31.1395 275.558 30.625 276.3 30.1455 277.014 29.694 277.683 26.4477 282.488 27.7114 289.015 32.5166 292.261 37.2942 295.489 43.7804 294.261 47.047 289.509 47.306 289.135 47.7085 288.547 48.2335 287.759 59.283 271.659 73.626 256.522 80.304 253.491 79.8945 256.522 79.0811 259.485 77.8855 262.3 75.5422 267.605 77.9425 273.805 83.2468 276.148 87.2357 277.91 91.8984 277.023 94.962 273.92 102.737 265.997 111.79 259.437 121.74 254.516 120.888 257.836 119.787 261.088 118.447 264.243 116.136 269.561 118.574 275.747 123.893 278.057 125.813 278.892 127.939 279.133 129.997 278.75 130.21 278.708 151.592 274.774 172.277 273.101 173.82 272.966 175.314 272.488 176.648 271.701L177.348 272.401C200.938 255.203 228.256 243.822 257.078 239.183 257.078 239.183 261.572 214.798 296.551 179.756L250.054 133.262C215.005 168.241 190.652 172.763 190.652 172.763ZM227.195 215.95C224.482 218.658 220.395 219.445 216.87 217.938L170.67 264.138 165.725 259.182 211.925 212.982C209.891 208.211 212.109 202.695 216.88 200.661 221.65 198.627 227.167 200.845 229.201 205.615 230.706 209.144 229.913 213.232 227.199 215.943Z" fill="#FFFFFF" fill-rule="nonzero" fill-opacity="1" transform="matrix(1 0 0 1.00298 2588 666)"/><path d="M253.533 116.606 313.327 176.4C313.327 176.4 319.245 170.978 328.933 162.078L328.933 35C287.297 79.8 253.533 116.606 253.533 116.606Z" fill="#FFFFFF" fill-rule="nonzero" fill-opacity="1" transform="matrix(1 0 0 1.00298 2588 666)"/></g></g></g><path d="M2495.5 660C2495.5 617.75 2529.75 583.5 2572 583.5 2614.25 583.5 2648.5 617.75 2648.5 660 2648.5 702.25 2614.25 736.5 2572 736.5 2529.75 736.5 2495.5 702.25 2495.5 660Z" stroke="#016E52" stroke-width="3.4375" stroke-linecap="butt" stroke-linejoin="miter" stroke-miterlimit="8" stroke-opacity="1" fill="#FFFFFF" fill-rule="evenodd" fill-opacity="1"/><text fill="#016E52" fill-opacity="1" font-family="Century Gothic,Century Gothic_MSFontService,sans-serif" font-style="normal" font-variant="normal" font-weight="700" font-stretch="normal" font-size="84" text-anchor="start" direction="ltr" writing-mode="lr-tb" unicode-bidi="normal" text-decoration="none" transform="matrix(1 0 0 1 2548.05 692)">3</text></g></g></svg>