<svg width="110" height="97" xmlns="http://www.w3.org/2000/svg" xmlns:xlink="http://www.w3.org/1999/xlink" xml:space="preserve" overflow="hidden"><g transform="translate(-275 -760)"><g><path d="M304.475 836.356 278 836.356 278 854.859 304.475 854.859 304.475 836.356Z" fill="#006D52" fill-rule="evenodd" fill-opacity="1"/><path d="M344.182 836.356 317.708 836.356 317.708 854.859 344.182 854.859 344.182 836.356Z" fill="#006D52" fill-rule="evenodd" fill-opacity="1"/><path d="M344.182 765 317.708 765 317.708 783.502 344.182 783.502 344.182 765Z" fill="#006D52" fill-rule="evenodd" fill-opacity="1"/><path d="M373.304 807.076 333.591 807.076 333.591 788.797 328.298 788.797 328.298 807.076 288.591 807.076 288.591 812.563 288.591 831.298 293.884 831.298 293.884 812.563 328.298 812.563 328.298 831.298 333.596 831.298 333.591 812.563 368.01 812.563 368.01 831.298 373.304 831.298 373.304 812.563 373.304 807.076Z" fill="#006D52" fill-rule="evenodd" fill-opacity="1"/><path d="M383.894 836.356 357.42 836.356 357.42 854.859 383.894 854.859 383.894 836.356Z" fill="#006D52" fill-rule="evenodd" fill-opacity="1"/></g></g></svg>