<svg width="130" height="130" xmlns="http://www.w3.org/2000/svg" xmlns:xlink="http://www.w3.org/1999/xlink" xml:space="preserve" overflow="hidden"><g transform="translate(-340 -502)"><g><g><g><g><path d="M439.094 613.188 371.906 613.188 371.906 529.875 386.688 529.875 386.688 537.938 424.312 537.938 424.312 529.875 439.094 529.875 439.094 613.188ZM405.5 519.125C407.784 519.125 409.531 520.872 409.531 523.156 409.531 525.441 407.784 527.188 405.5 527.188 403.216 527.188 401.469 525.441 401.469 523.156 401.469 522.081 401.872 521.006 402.678 520.334 403.35 519.528 404.425 519.125 405.5 519.125ZM441.781 521.812 418.938 521.812 418.938 519.125C418.938 516.169 416.519 513.75 413.562 513.75L397.438 513.75C394.481 513.75 392.062 516.169 392.062 519.125L392.062 521.812 369.219 521.812C366.263 521.812 363.844 524.231 363.844 527.188L363.844 615.875C363.844 618.831 366.263 621.25 369.219 621.25L441.781 621.25C444.737 621.25 447.156 618.831 447.156 615.875L447.156 527.188C447.156 524.231 444.737 521.812 441.781 521.812Z" fill="#016E52" fill-rule="nonzero" fill-opacity="1"/></g></g></g></g></g></svg>