<svg width="527" height="528" xmlns="http://www.w3.org/2000/svg" xmlns:xlink="http://www.w3.org/1999/xlink" xml:space="preserve" overflow="hidden"><g transform="translate(-403 -572)"><g><path d="M408 835C408 690.854 524.63 574 668.5 574 812.37 574 929 690.854 929 835 929 979.146 812.37 1096 668.5 1096 524.63 1096 408 979.146 408 835Z" fill="#016E52" fill-rule="evenodd" fill-opacity="1"/><g><g><g><path d="M180.786 57.9219C180.861 51.2422 175.53 45.7548 168.851 45.6354L168.5 45.6354C161.714 45.6354 156.213 51.1362 156.213 57.9219 156.213 64.7075 161.714 70.2083 168.5 70.2083 175.286 70.2083 180.786 64.7075 180.786 57.9219ZM173.766 57.8622C173.799 60.7702 171.468 63.1541 168.56 63.1871 165.652 63.2201 163.268 60.8896 163.235 57.9815 163.202 55.0735 165.533 52.6896 168.441 52.6566 168.46 52.6562 168.48 52.6562 168.5 52.6562L168.728 52.6562C171.556 52.7043 173.81 55.0342 173.766 57.8622Z" fill="#FFFFFF" fill-rule="nonzero" fill-opacity="1" transform="matrix(1 0 0 1 500 666)"/><path d="M207.989 142.463 196.429 130.907 191.465 135.871 207.989 152.394 238.554 121.829 233.59 116.865 207.989 142.463Z" fill="#FFFFFF" fill-rule="nonzero" fill-opacity="1" transform="matrix(1 0 0 1 500 666)"/><path d="M98.2881 129.878 172.007 129.878 172.007 136.899 98.2881 136.899Z" fill="#FFFFFF" fill-rule="nonzero" fill-opacity="1" transform="matrix(1 0 0 1 500 666)"/><path d="M207.989 181.088 196.429 169.528 191.465 174.492 207.989 191.016 238.554 160.451 233.59 155.487 207.989 181.088Z" fill="#FFFFFF" fill-rule="nonzero" fill-opacity="1" transform="matrix(1 0 0 1 500 666)"/><path d="M98.2881 172.01 172.007 172.01 172.007 179.031 98.2881 179.031Z" fill="#FFFFFF" fill-rule="nonzero" fill-opacity="1" transform="matrix(1 0 0 1 500 666)"/><path d="M98.2881 214.128 172.007 214.128 172.007 221.149 98.2881 221.149Z" fill="#FFFFFF" fill-rule="nonzero" fill-opacity="1" transform="matrix(1 0 0 1 500 666)"/><path d="M98.2881 256.253 172.007 256.253 172.007 263.274 98.2881 263.274Z" fill="#FFFFFF" fill-rule="nonzero" fill-opacity="1" transform="matrix(1 0 0 1 500 666)"/><path d="M231.687 203.604 203.604 203.604 203.604 231.687 231.687 231.687ZM224.667 224.667 210.625 224.667 210.625 210.625 224.667 210.625Z" fill="#FFFFFF" fill-rule="nonzero" fill-opacity="1" transform="matrix(1 0 0 1 500 666)"/><path d="M231.687 245.729 203.604 245.729 203.604 273.812 231.687 273.812ZM224.667 266.792 210.625 266.792 210.625 252.75 224.667 252.75Z" fill="#FFFFFF" fill-rule="nonzero" fill-opacity="1" transform="matrix(1 0 0 1 500 666)"/><path d="M259.771 52.5825 207.115 52.5825 207.115 45.5617C207.103 35.8726 199.252 28.0212 189.562 28.0096L147.437 28.0096C137.748 28.0212 129.897 35.8726 129.885 45.5617L129.885 52.5825 77.2291 52.5825C69.4743 52.5825 63.1875 58.8693 63.1875 66.6242L63.1875 294.875C63.1875 302.63 69.4743 308.917 77.2291 308.917L259.771 308.917C267.526 308.917 273.812 302.63 273.812 294.875L273.812 66.6242C273.812 58.8693 267.526 52.5825 259.771 52.5825ZM122.865 59.6033 136.906 59.6033 136.906 45.5617C136.906 39.7453 141.621 35.0304 147.437 35.0304L189.562 35.0304C195.379 35.0304 200.094 39.7453 200.094 45.5617L200.094 59.6033 214.135 59.6033 214.135 87.7604 122.865 87.7604ZM266.792 294.875C266.792 298.753 263.648 301.896 259.771 301.896L77.2291 301.896C73.3515 301.896 70.2083 298.753 70.2083 294.875L70.2083 66.6242C70.2083 62.7466 73.3515 59.6033 77.2291 59.6033L115.844 59.6033 115.844 94.7812 221.156 94.7812 221.156 59.6033 259.771 59.6033C263.648 59.6033 266.792 62.7466 266.792 66.6242Z" fill="#FFFFFF" fill-rule="nonzero" fill-opacity="1" transform="matrix(1 0 0 1 500 666)"/></g></g></g><path d="M408.5 660C408.5 617.75 442.526 583.5 484.5 583.5 526.474 583.5 560.5 617.75 560.5 660 560.5 702.25 526.474 736.5 484.5 736.5 442.526 736.5 408.5 702.25 408.5 660Z" stroke="#016E52" stroke-width="3.4375" stroke-linecap="butt" stroke-linejoin="miter" stroke-miterlimit="8" stroke-opacity="1" fill="#FFFFFF" fill-rule="evenodd" fill-opacity="1"/><text fill="#016E52" fill-opacity="1" font-family="Century Gothic,Century Gothic_MSFontService,sans-serif" font-style="normal" font-variant="normal" font-weight="700" font-stretch="normal" font-size="84" text-anchor="start" direction="ltr" writing-mode="lr-tb" unicode-bidi="normal" text-decoration="none" transform="matrix(1 0 0 1 460.49 692)">1</text></g></g></svg>