<svg width="527" height="528" xmlns="http://www.w3.org/2000/svg" xmlns:xlink="http://www.w3.org/1999/xlink" xml:space="preserve" overflow="hidden"><g transform="translate(-1448 -572)"><g><path d="M1451 835C1451 690.854 1567.85 574 1712 574 1856.15 574 1973 690.854 1973 835 1973 979.146 1856.15 1096 1712 1096 1567.85 1096 1451 979.146 1451 835Z" fill="#016E52" fill-rule="evenodd" fill-opacity="1"/><g><g><g><path d="M158.516 312.427C172.558 207.115 232.235 112.333 298.933 91.2708L298.933 77.2291C228.725 91.2708 112.881 175.521 49.6934 312.427Z" fill="#FFFFFF" fill-rule="nonzero" fill-opacity="1" transform="matrix(1 0 0 1 1544 666)"/><path d="M296.914 226.071 296.914 196.583 283.052 196.583 283.052 212.731 255.323 186.052 182.542 256.26 190.338 262.93 255.323 200.445 320.308 262.93 328.108 256.26 296.914 226.071Z" fill="#FFFFFF" fill-rule="nonzero" fill-opacity="1" transform="matrix(1 0 0 1 1544 666)"/><path d="M203.337 260.297 203.337 312.427 244.925 312.427 244.925 268.547 265.721 268.547 265.721 312.427 307.312 312.427 307.312 260.297 255.323 210.274 203.337 260.297ZM234.531 289.609 213.735 289.609 213.735 268.547 234.531 268.547 234.531 289.609ZM276.119 268.547 296.914 268.547 296.914 289.609 276.119 289.609 276.119 268.547Z" fill="#FFFFFF" fill-rule="nonzero" fill-opacity="1" transform="matrix(1 0 0 1 1544 666)"/><path d="M110.044 115.201 110.044 89.807 98.1091 89.807 98.1091 103.712 74.2312 80.7396 11.5563 141.196 18.2717 146.939 74.2312 93.1348 130.191 146.939 136.906 141.196 110.044 115.201Z" fill="#FFFFFF" fill-rule="nonzero" fill-opacity="1" transform="matrix(1 0 0 1 1544 666)"/><path d="M29.4664 144.675 29.4664 189.562 65.2937 189.562 65.2937 151.776 83.1968 151.776 83.1968 189.562 119.003 189.562 119.003 144.675 74.2312 101.598 29.4664 144.675ZM56.3246 169.915 38.4215 169.915 38.4215 151.776 56.3246 151.776 56.3246 169.904ZM92.1309 151.776 110.034 151.776 110.034 169.904 92.1309 169.904 92.1309 151.776Z" fill="#FFFFFF" fill-rule="nonzero" fill-opacity="1" transform="matrix(1 0 0 1 1544 666)"/><path d="M215.269 46.6288 215.269 27.792 206.412 27.792 206.412 38.1091 188.699 21.0625 142.196 65.9186 147.181 70.1802 188.699 30.2563 230.217 70.1802 235.198 65.9186 215.269 46.6288Z" fill="#FFFFFF" fill-rule="nonzero" fill-opacity="1" transform="matrix(1 0 0 1 1544 666)"/><path d="M155.483 68.4987 155.483 101.802 182.054 101.802 182.054 73.7679 195.341 73.7679 195.341 101.802 221.911 101.802 221.911 68.4987 188.699 36.5364 155.483 68.4987ZM175.412 87.2233 162.125 87.2233 162.125 73.7679 175.412 73.7679 175.412 87.2233ZM201.982 73.7679 215.269 73.7679 215.269 87.2233 201.982 87.2233 201.982 73.7679Z" fill="#FFFFFF" fill-rule="nonzero" fill-opacity="1" transform="matrix(1 0 0 1 1544 666)"/></g></g></g><path d="M1451.5 660C1451.5 617.75 1485.75 583.5 1528 583.5 1570.25 583.5 1604.5 617.75 1604.5 660 1604.5 702.25 1570.25 736.5 1528 736.5 1485.75 736.5 1451.5 702.25 1451.5 660Z" stroke="#016E52" stroke-width="3.4375" stroke-linecap="butt" stroke-linejoin="miter" stroke-miterlimit="8" stroke-opacity="1" fill="#FFFFFF" fill-rule="evenodd" fill-opacity="1"/><text fill="#016E52" fill-opacity="1" font-family="Century Gothic,Century Gothic_MSFontService,sans-serif" font-style="normal" font-variant="normal" font-weight="700" font-stretch="normal" font-size="84" text-anchor="start" direction="ltr" writing-mode="lr-tb" unicode-bidi="normal" text-decoration="none" transform="matrix(1 0 0 1 1504.27 692)">2</text></g></g></svg>