<svg width="88" height="88" xmlns="http://www.w3.org/2000/svg" xmlns:xlink="http://www.w3.org/1999/xlink" xml:space="preserve" overflow="hidden"><g transform="translate(-361 -174)"><g><g><g><g><path d="M418.369 224.481C422.175 225.841 425.8 227.381 428.791 229.828 430.059 230.825 430.784 232.275 430.784 233.906L432.416 247.953C432.506 248.587 432.234 249.222 431.691 249.584 430.15 250.581 428.519 251.397 426.797 251.941L426.797 254.841 429.244 254.841C430.784 254.206 432.325 253.481 433.684 252.575 435.316 251.488 436.222 249.494 435.95 247.5L434.5 233.816C434.409 231.188 433.231 228.741 431.147 227.109 427.794 224.3 423.806 222.578 419.638 221.128L415.197 219.316C414.834 219.134 414.653 218.863 414.653 218.5L414.653 216.325C418.097 213.606 420.091 209.438 420.091 204.997L420.091 201.734C420.634 202.097 421.269 202.188 421.903 202.278L420.362 197.747C420.181 197.113 420 196.478 419.909 195.844 419.184 190.678 416.103 187.053 411.844 184.788 411.481 184.606 411.028 184.606 410.666 184.878L409.85 185.512 408.944 184.244C408.672 183.881 408.309 183.519 407.856 183.428 407.041 183.247 406.225 183.156 405.409 183.156 398.25 183.156 392.269 188.775 391 196.116L391 196.75 391 198.291C391 200.284 390.638 202.188 389.822 204L388.281 207.625C388.281 207.625 389.369 207.353 391.181 206.809 391.634 210.525 393.538 213.878 396.438 216.144L396.438 218.409C396.438 218.772 396.256 219.134 395.894 219.225L391.453 221.038C387.284 222.488 383.297 224.209 379.944 227.019 377.859 228.65 376.591 231.097 376.5 233.725L374.959 247.5C374.688 249.494 375.594 251.488 377.225 252.575 378.584 253.481 380.125 254.206 381.666 254.841L384.203 254.841 384.203 252.031C382.481 251.397 380.85 250.672 379.309 249.675 378.766 249.312 378.494 248.678 378.584 248.044L380.125 234.087 380.125 233.906C380.125 232.275 380.941 230.825 382.209 229.828 385.2 227.381 388.825 225.841 392.631 224.481L394.081 224.028C396.709 225.659 400.878 226.656 405.5 226.656 410.122 226.656 414.291 225.659 417.009 224.028L418.369 224.481ZM394.625 205.722C400.788 203.637 409.669 200.012 413.656 194.938 414.472 196.206 415.378 197.384 416.375 198.562L416.375 204.906C416.375 210.887 411.481 215.781 405.5 215.781 399.791 215.781 395.078 211.431 394.625 205.722ZM398.25 222.034C399.337 221.219 400.062 219.859 400.062 218.409L400.062 218.319C403.506 219.769 407.494 219.769 410.938 218.319L410.938 218.409C410.938 219.769 411.572 221.128 412.659 222.034 410.303 222.759 407.856 223.122 405.409 223.031 403.053 223.031 400.606 222.669 398.25 222.034Z" fill="#016E52" fill-rule="nonzero" fill-opacity="1"/><path d="M425.075 234.178C425.075 232.909 424.078 231.913 422.809 231.913L422.809 231.913 388.281 231.913C387.013 231.913 386.016 232.909 386.016 234.178L386.016 256.744 379.128 256.744 379.128 257.922C379.128 259.191 380.125 260.188 381.394 260.188L429.697 260.188C430.966 260.188 431.962 259.191 431.962 257.922L431.962 256.744 425.075 256.744 425.075 234.178ZM400.788 249.131 399.519 250.4 394.444 245.325 399.519 240.25 400.788 241.519 396.981 245.325 400.788 249.131ZM404.231 251.034 402.6 250.309 406.859 240.069 408.491 240.794 404.231 251.034ZM411.481 250.491 410.212 249.222 414.019 245.416 410.212 241.609 411.481 240.341 416.556 245.416 411.481 250.491Z" fill="#016E52" fill-rule="nonzero" fill-opacity="1"/></g></g></g></g></g></svg>