<svg width="532" height="528" xmlns="http://www.w3.org/2000/svg" xmlns:xlink="http://www.w3.org/1999/xlink" xml:space="preserve" overflow="hidden"><g transform="translate(-3533 -572)"><g><path d="M3539 835C3539 690.854 3655.85 574 3800 574 3944.15 574 4061 690.854 4061 835 4061 979.146 3944.15 1096 3800 1096 3655.85 1096 3539 979.146 3539 835Z" fill="#016E52" fill-rule="evenodd" fill-opacity="1"/><g><g><g><path d="M301.896 249.239 291.364 259.771 49.1458 259.771 35.1042 245.729 35.1042 175.521 49.1458 161.479 291.364 161.479 301.896 172.01 301.896 249.239ZM14.0417 140.417 14.0417 280.833 322.958 280.833 322.958 140.417 14.0417 140.417Z" fill="#FFFFFF" fill-rule="nonzero" fill-opacity="1" transform="matrix(1 0 0 1 3631 666)"/><path d="M196.583 210.625C196.583 230.012 184.01 245.729 168.5 245.729 152.99 245.729 140.417 230.012 140.417 210.625 140.417 191.237 152.99 175.521 168.5 175.521 184.01 175.521 196.583 191.237 196.583 210.625Z" fill="#FFFFFF" fill-rule="nonzero" fill-opacity="1" transform="matrix(1 0 0 1 3631 666)"/><path d="M91.2708 210.625C91.2708 216.441 86.5558 221.156 80.7396 221.156 74.9233 221.156 70.2083 216.441 70.2083 210.625 70.2083 204.809 74.9233 200.094 80.7396 200.094 86.5558 200.094 91.2708 204.809 91.2708 210.625Z" fill="#FFFFFF" fill-rule="nonzero" fill-opacity="1" transform="matrix(1 0 0 1 3631 666)"/><path d="M266.792 210.625C266.792 216.441 262.077 221.156 256.26 221.156 250.444 221.156 245.729 216.441 245.729 210.625 245.729 204.809 250.444 200.094 256.26 200.094 262.077 200.094 266.792 204.809 266.792 210.625Z" fill="#FFFFFF" fill-rule="nonzero" fill-opacity="1" transform="matrix(1 0 0 1 3631 666)"/><path d="M231.336 72.6656 236.602 86.0052 257.664 81.7927 242.921 44.9333 54.0604 122.162 162.181 100.749Z" fill="#FFFFFF" fill-rule="nonzero" fill-opacity="1" transform="matrix(1 0 0 1 3631 666)"/><path d="M213.082 126.375 268.547 115.493 271.004 126.375 292.418 126.375 285.397 90.5687 105.312 126.375Z" fill="#FFFFFF" fill-rule="nonzero" fill-opacity="1" transform="matrix(1 0 0 1 3631 666)"/></g></g></g><path d="M3539.5 660.5C3539.5 618.526 3573.75 584.5 3616 584.5 3658.25 584.5 3692.5 618.526 3692.5 660.5 3692.5 702.474 3658.25 736.5 3616 736.5 3573.75 736.5 3539.5 702.474 3539.5 660.5Z" stroke="#016E52" stroke-width="3.4375" stroke-linecap="butt" stroke-linejoin="miter" stroke-miterlimit="8" stroke-opacity="1" fill="#FFFFFF" fill-rule="evenodd" fill-opacity="1"/><text fill="#016E52" fill-opacity="1" font-family="Century Gothic,Century Gothic_MSFontService,sans-serif" font-style="normal" font-variant="normal" font-weight="700" font-stretch="normal" font-size="84" text-anchor="start" direction="ltr" writing-mode="lr-tb" unicode-bidi="normal" text-decoration="none" transform="matrix(1 0 0 1 3591.83 692)">4</text></g></g></svg>